<svg id="Layer_4" data-name="Layer 4" xmlns="http://www.w3.org/2000/svg" viewBox="0 0 32 32"><defs><style>.cls-1{fill:#f6821f;}.cls-2{fill:#fbad41;}</style></defs><path class="cls-1" d="M20.89,20.75l-.23.93H3.11c0-.14,0-.28,0-.43A3.86,3.86,0,0,1,6.9,17.06a2.67,2.67,0,0,1-.12-.75,2.72,2.72,0,0,1,4.38-2.16A6.15,6.15,0,0,1,17,10a6,6,0,0,1,6,4.9l-.57,1.42a3.3,3.3,0,0,1-3,2.09l-9.26.18c-.17.11-.23.24-.14.39l9.59.14A1.32,1.32,0,0,1,20.89,20.75Z"/><path class="cls-2" d="M28.9,19.88a8.46,8.46,0,0,1-.17,1.8H21.35l.11-.34a3.3,3.3,0,0,1,3-2.27l2-.09c.14-.14.18-.27,0-.41l-2.12-.13a1.47,1.47,0,0,1-1.34-1.89l.44-1.47a2.34,2.34,0,0,1,.38,0A5.06,5.06,0,0,1,28.9,19.88Z"/></svg>