<svg width="81" height="34" viewBox="0 0 81 34" fill="none" xmlns="http://www.w3.org/2000/svg">
<path d="M25.2094 2.80933L22.967 27.995L12.8644 30.7803L2.76184 27.995L0.51944 2.80933H25.2094Z" fill="#7F7F7F"/>
<path d="M12.8644 28.6441V4.88647H22.9434L21.0196 26.3781L12.8644 28.6441Z" fill="#7F7F7F"/>
<path d="M20.6065 7.94336L19.1784 23.6874L12.8643 25.4341L6.55019 23.6874L6.25513 20.4536L6.11351 18.8249H9.18206L9.33548 20.4536L9.4063 21.2915L12.8643 22.2357L16.2987 21.2915L16.3577 20.4536L16.6174 17.2906H5.97188L5.68863 14.1985H16.9242L17.1957 11.0355H5.40538L5.12213 7.94336H20.6065Z" fill="white"/>
<g opacity="0.1">
<path d="M12.8643 7.94336V11.0355H5.40538L5.12213 7.94336H12.8643Z" fill="#7F7F7F"/>
<path d="M5.68866 14.1985H12.8643V17.2906H5.97191L5.68866 14.1985Z" fill="#7F7F7F"/>
<path d="M9.40631 21.2916L12.8643 22.2358V25.4341L6.5502 23.6874L6.25515 20.4536L6.11353 18.825H9.18207L9.3355 20.4536L9.40631 21.2916Z" fill="#7F7F7F"/>
</g>
<path d="M48.2981 13.4954H44.0861C44.0092 12.9505 43.8521 12.4664 43.6149 12.0433C43.3777 11.6138 43.0732 11.2483 42.7014 10.947C42.3295 10.6457 41.9 10.4149 41.4128 10.2546C40.9319 10.0944 40.4094 10.0142 39.8453 10.0142C38.8259 10.0142 37.938 10.2675 37.1815 10.7739C36.425 11.274 35.8384 12.0048 35.4217 12.9665C35.005 13.9217 34.7966 15.0821 34.7966 16.4476C34.7966 17.8517 35.005 19.0313 35.4217 19.9865C35.8448 20.9417 36.4346 21.663 37.1911 22.1502C37.9476 22.6375 38.8227 22.8811 39.8164 22.8811C40.3742 22.8811 40.8903 22.8073 41.3647 22.6599C41.8455 22.5124 42.2718 22.2977 42.6437 22.0156C43.0155 21.7271 43.3232 21.3777 43.5668 20.9674C43.8169 20.5571 43.99 20.0891 44.0861 19.5634L48.2981 19.5826C48.1892 20.4866 47.9167 21.3585 47.4807 22.1983C47.0512 23.0317 46.471 23.7786 45.7402 24.4389C45.0157 25.0929 44.1502 25.6122 43.1437 25.9968C42.1436 26.3751 41.0121 26.5642 39.7491 26.5642C37.9925 26.5642 36.4218 26.1667 35.037 25.3717C33.6587 24.5768 32.5688 23.426 31.7674 21.9194C30.9725 20.4128 30.575 18.5889 30.575 16.4476C30.575 14.3 30.9789 12.4728 31.7867 10.9663C32.5944 9.45968 33.6907 8.31211 35.0755 7.52356C36.4603 6.7286 38.0181 6.33111 39.7491 6.33111C40.8903 6.33111 41.9481 6.49139 42.9225 6.81194C43.9034 7.13249 44.7721 7.60049 45.5286 8.21594C46.2851 8.82499 46.9006 9.57187 47.375 10.4566C47.8558 11.3413 48.1635 12.3542 48.2981 13.4954ZM63.497 15.736L59.7466 15.9668C59.6825 15.6463 59.5446 15.3578 59.3331 15.1013C59.1215 14.8385 58.8426 14.6301 58.4964 14.4763C58.1566 14.316 57.7495 14.2359 57.2751 14.2359C56.6404 14.2359 56.1051 14.3705 55.6692 14.6398C55.2332 14.9026 55.0153 15.2552 55.0153 15.6976C55.0153 16.0502 55.1563 16.3483 55.4384 16.5919C55.7205 16.8355 56.2045 17.031 56.8905 17.1785L59.5639 17.717C60.9999 18.0119 62.0705 18.4863 62.7758 19.1403C63.481 19.7942 63.8336 20.6533 63.8336 21.7175C63.8336 22.6855 63.5483 23.535 62.9777 24.2658C62.4135 24.9967 61.6378 25.5673 60.6505 25.9776C59.6696 26.3815 58.5381 26.5834 57.2559 26.5834C55.3005 26.5834 53.7427 26.1763 52.5823 25.3621C51.4283 24.5415 50.752 23.426 50.5532 22.0156L54.5825 21.804C54.7043 22.4002 54.9992 22.8554 55.4672 23.1696C55.9352 23.4773 56.5347 23.6312 57.2655 23.6312C57.9835 23.6312 58.5605 23.4933 58.9965 23.2176C59.4388 22.9356 59.6632 22.5733 59.6696 22.131C59.6632 21.7592 59.5062 21.4546 59.1984 21.2174C58.8907 20.9738 58.4163 20.7879 57.7752 20.6597L55.2172 20.15C53.7747 19.8615 52.7009 19.3614 51.9957 18.6498C51.2969 17.9382 50.9475 17.031 50.9475 15.9284C50.9475 14.9795 51.2039 14.1621 51.7168 13.4762C52.2361 12.7902 52.9637 12.2613 53.8997 11.8894C54.8422 11.5176 55.9449 11.3317 57.2078 11.3317C59.0734 11.3317 60.5415 11.726 61.6122 12.5145C62.6892 13.3031 63.3175 14.3769 63.497 15.736ZM78.703 15.736L74.9526 15.9668C74.8885 15.6463 74.7507 15.3578 74.5391 15.1013C74.3276 14.8385 74.0487 14.6301 73.7025 14.4763C73.3627 14.316 72.9556 14.2359 72.4812 14.2359C71.8465 14.2359 71.3112 14.3705 70.8752 14.6398C70.4393 14.9026 70.2213 15.2552 70.2213 15.6976C70.2213 16.0502 70.3624 16.3483 70.6444 16.5919C70.9265 16.8355 71.4106 17.031 72.0965 17.1785L74.7699 17.717C76.206 18.0119 77.2766 18.4863 77.9818 19.1403C78.687 19.7942 79.0396 20.6533 79.0396 21.7175C79.0396 22.6855 78.7543 23.535 78.1838 24.2658C77.6196 24.9967 76.8439 25.5673 75.8566 25.9776C74.8757 26.3815 73.7442 26.5834 72.462 26.5834C70.5066 26.5834 68.9487 26.1763 67.7883 25.3621C66.6344 24.5415 65.958 23.426 65.7593 22.0156L69.7886 21.804C69.9104 22.4002 70.2053 22.8554 70.6733 23.1696C71.1413 23.4773 71.7407 23.6312 72.4716 23.6312C73.1896 23.6312 73.7666 23.4933 74.2025 23.2176C74.6449 22.9356 74.8693 22.5733 74.8757 22.131C74.8693 21.7592 74.7122 21.4546 74.4045 21.2174C74.0968 20.9738 73.6223 20.7879 72.9812 20.6597L70.4233 20.15C68.9808 19.8615 67.9069 19.3614 67.2017 18.6498C66.5029 17.9382 66.1535 17.031 66.1535 15.9284C66.1535 14.9795 66.41 14.1621 66.9229 13.4762C67.4422 12.7902 68.1698 12.2613 69.1058 11.8894C70.0482 11.5176 71.1509 11.3317 72.4139 11.3317C74.2795 11.3317 75.7476 11.726 76.8182 12.5145C77.8953 13.3031 78.5235 14.3769 78.703 15.736Z" fill="#7F7F7F"/>
</svg>
