<svg id="Layer_4" data-name="Layer 4" xmlns="http://www.w3.org/2000/svg" viewBox="0 0 32 32"><defs><style>.cls-1{fill:#f05133;}.cls-2{fill:#fff;}</style></defs><path class="cls-1" d="M29.91,17.33,17.33,29.91a1.89,1.89,0,0,1-2.66,0L2.09,17.33a1.89,1.89,0,0,1,0-2.66L10.74,6l1.31-1.31,2.62-2.62a1.89,1.89,0,0,1,2.66,0L29.91,14.67A1.89,1.89,0,0,1,29.91,17.33Z"/><path class="cls-2" d="M22.08,14a2.44,2.44,0,0,0-.65.1l-3.25-3.25a2.06,2.06,0,0,0,.11-.65A2.19,2.19,0,0,0,16.09,8a2.32,2.32,0,0,0-.65.1L12.05,4.71,10.74,6l3.33,3.33a1.9,1.9,0,0,0-.18.83,2.17,2.17,0,0,0,1.34,2v4.6a2.19,2.19,0,1,0,1.86,0V16.6h0V12.37l3,3a2.09,2.09,0,0,0-.17.83A2.2,2.2,0,1,0,22.08,14Z"/></svg>