<svg id="Layer_4" data-name="Layer 4" xmlns="http://www.w3.org/2000/svg" viewBox="0 0 32 32"><defs><style>.cls-1{fill:#fff;}</style></defs><path class="cls-1" d="M23.76,18.71c-1.08,2.75-5.35,3.07-5.35,3.07a3.23,3.23,0,0,1,.91,1.83s0,2,0,3.54v.5a.84.84,0,0,0,1.07.81h0l-1.09.33a13.06,13.06,0,0,1-6.57,0l-1.1-.33h0a.85.85,0,0,0,1.1-.82V25.39s-3.35.89-4.39-1.52c-1-2.23-1.9-1.93-2-2.44,0,0-.15-.31.39-.34a2.45,2.45,0,0,1,2.12,1.27c.6,1,1.66,2.15,3.91,1.2,0,0,.22-1.37.84-1.78,0,0-4.27-.32-5.35-3.07-1.36-3.48-.33-6.12.7-7A4.61,4.61,0,0,1,9.1,8.24,5.27,5.27,0,0,1,12.7,9.6a12.33,12.33,0,0,1,6.6,0,5.27,5.27,0,0,1,3.6-1.36,4.61,4.61,0,0,1,.16,3.48C24.09,12.59,25.12,15.23,23.76,18.71Z"/><path d="M20.45,28.44l-.08,0a.84.84,0,0,1-1.07-.81v-.5c0-1.52,0-3.54,0-3.54a3.23,3.23,0,0,0-.91-1.83s4.27-.32,5.35-3.07c1.36-3.48.33-6.12-.7-7a4.61,4.61,0,0,0-.16-3.48A5.27,5.27,0,0,0,19.3,9.6a12.33,12.33,0,0,0-6.6,0A5.27,5.27,0,0,0,9.1,8.24a4.61,4.61,0,0,0-.16,3.48c-1,.87-2.06,3.51-.7,7,1.08,2.75,5.35,3.07,5.35,3.07-.62.41-.84,1.78-.84,1.78-2.25,1-3.31-.18-3.91-1.2a2.45,2.45,0,0,0-2.12-1.27c-.54,0-.39.34-.39.34.1.51,1,.21,2,2.44,1,2.41,4.39,1.52,4.39,1.52v2.25a.85.85,0,0,1-1.1.82h0a13.23,13.23,0,1,1,8.88,0Z"/><ellipse cx="7.64" cy="21.63" rx="0.14" ry="0.2" transform="translate(-15.23 19.86) rotate(-66.13)"/><ellipse cx="8.19" cy="22.12" rx="0.15" ry="0.21" transform="translate(-13.82 13.63) rotate(-48.57)"/><ellipse cx="8.73" cy="22.84" rx="0.15" ry="0.21" transform="translate(-12.72 11.1) rotate(-40.38)"/><ellipse cx="9.39" cy="23.61" rx="0.17" ry="0.23" transform="translate(-13.06 11.71) rotate(-40.38)"/><ellipse cx="10.29" cy="24.15" rx="0.17" ry="0.23" transform="translate(-15.85 26.5) rotate(-72.05)"/><ellipse cx="11.35" cy="24.31" rx="0.23" ry="0.17" transform="translate(-1.22 0.61) rotate(-2.9)"/><ellipse cx="12.37" cy="24.19" rx="0.23" ry="0.17" transform="translate(-3.1 1.86) rotate(-7.63)"/></svg>