<svg id="Layer_4" data-name="Layer 4" xmlns="http://www.w3.org/2000/svg" viewBox="0 0 32 32"><defs><style>.cls-1{fill:#41b883;}</style></defs><path class="cls-1" d="M30.22,12.64c-1.68-2.43-5.26-2.87-8-1a6.45,6.45,0,0,0-2.47,3.26H14.81l-1,2.28H17.1a3.38,3.38,0,0,1-1,1A2.94,2.94,0,0,1,12,17.75a2.94,2.94,0,0,1,1-4,2.94,2.94,0,0,1,4.12.48s0,0,0,0L20,13.35a4.7,4.7,0,0,0-.45-.82c-1.7-2.46-5.32-2.9-8.09-1S7.83,17,9.53,19.46s5.32,2.91,8.09,1a6.58,6.58,0,0,0,2.06-2.29,4.6,4.6,0,0,0,.64,1.32c1.68,2.43,5.26,2.87,8,1S31.9,15.08,30.22,12.64Zm-3.38,5.63a2.9,2.9,0,0,1-4.07-.47,2.91,2.91,0,0,1,1-4,2.91,2.91,0,0,1,4.07.48A2.9,2.9,0,0,1,26.84,18.27Z"/><polygon class="cls-1" points="2.88 13.81 8.6 13.81 8.87 13.25 3.14 13.25 2.88 13.81"/><polygon class="cls-1" points="2.02 15.91 7.81 15.91 7.78 16.48 2.28 16.48 2.02 15.91"/><polygon class="cls-1" points="0.92 15.12 7.99 15.12 8.26 14.56 1.19 14.56 0.92 15.12"/></svg>