<svg width="92" height="34" viewBox="0 0 92 34" fill="none" xmlns="http://www.w3.org/2000/svg">
<path d="M24.6891 2.80981L22.4468 27.9946L12.3446 30.7798L2.24232 27.9946L0 2.80981H24.6891Z" fill="#7F7F7F"/>
<path d="M12.3445 28.6438V4.88696H22.4232L20.4995 26.3778L12.3445 28.6438Z" fill="#7F7F7F"/>
<path d="M20.1572 7.9436L19.874 11.0356H8.08411L8.28474 14.1985H5.1691L4.67342 7.9436H20.1572Z" fill="white"/>
<path d="M19.52 14.1982L18.6585 23.6868L12.3446 25.4335L6.03067 23.6868L5.73563 20.4531L5.59401 18.8245H8.66245L8.81588 20.4531L8.88669 21.2911L12.3446 22.2352L15.7789 21.2911L15.8379 20.4531L16.0975 17.2903H5.45239L5.16915 14.1982H19.52Z" fill="white"/>
<path opacity="0.1" d="M12.3445 11.0356H8.08411L8.28474 14.1985H12.3445V17.2905H5.45234L5.1691 14.1985L4.67342 7.9436H12.3445V11.0356Z" fill="#221F1F"/>
<path opacity="0.1" d="M8.88667 21.2913L12.3446 22.2354V25.4337L6.03066 23.687L5.73561 20.4533L5.59399 18.8247H8.66244L8.81586 20.4533L8.88667 21.2913Z" fill="#221F1F"/>
<path d="M30.4009 26.2949V6.60038H34.5648V14.7263H43.0177V6.60038H47.172V26.2949H43.0177V18.1594H34.5648V26.2949H30.4009ZM58.3848 11.524V14.6013H49.4896V11.524H58.3848ZM51.509 7.98515H55.6057V21.7559C55.6057 22.1342 55.6634 22.4291 55.7788 22.6407C55.8942 22.8458 56.0544 22.9901 56.2596 23.0734C56.4712 23.1567 56.7148 23.1984 56.9904 23.1984C57.1828 23.1984 57.3751 23.1824 57.5674 23.1503C57.7598 23.1119 57.9072 23.083 58.0098 23.0638L58.6541 26.1122C58.4489 26.1763 58.1604 26.25 57.7886 26.3334C57.4168 26.4231 56.9648 26.4776 56.4327 26.4969C55.4454 26.5353 54.5799 26.4039 53.8362 26.1026C53.099 25.8013 52.5252 25.3333 52.1149 24.6986C51.7046 24.0639 51.5026 23.2625 51.509 22.2945V7.98515ZM61.0534 26.2949V11.524H64.9577V14.1301H65.1308C65.4385 13.2646 65.9514 12.5818 66.6694 12.0818C67.3875 11.5817 68.2465 11.3317 69.2466 11.3317C70.2596 11.3317 71.1219 11.5849 71.8335 12.0914C72.5451 12.5914 73.0195 13.271 73.2567 14.1301H73.4106C73.7119 13.2838 74.2568 12.6075 75.0454 12.101C75.8403 11.5881 76.7795 11.3317 77.863 11.3317C79.2414 11.3317 80.3601 11.7708 81.2192 12.6491C82.0846 13.521 82.5174 14.7584 82.5174 16.3611V26.2949H78.4304V17.1689C78.4304 16.3483 78.2124 15.7328 77.7765 15.3225C77.3405 14.9122 76.7956 14.7071 76.1417 14.7071C75.398 14.7071 74.8178 14.9443 74.4011 15.4187C73.9844 15.8867 73.776 16.5053 73.776 17.2747V26.2949H69.8044V17.0823C69.8044 16.3579 69.596 15.7809 69.1793 15.3514C68.769 14.9218 68.2273 14.7071 67.5541 14.7071C67.099 14.7071 66.6887 14.8225 66.3232 15.0533C65.9642 15.2776 65.6789 15.595 65.4674 16.0053C65.2558 16.4092 65.15 16.8836 65.15 17.4285V26.2949H61.0534ZM89.8499 6.60038V26.2949H85.7533V6.60038H89.8499Z" fill="#7F7F7F"/>
</svg>
