<svg id="Layer_4" data-name="Layer 4" xmlns="http://www.w3.org/2000/svg" viewBox="0 0 32 32"><defs><style>.cls-1{fill:#e44d26;}.cls-2{fill:#f16529;}.cls-3{font-size:6.08px;font-family:AgencyFB-Bold, Agency FB;font-weight:700;}.cls-4{fill:#fff;}.cls-5{fill:#221f1f;opacity:0.1;}</style></defs><polygon class="cls-1" points="26.46 7.27 24.56 28.61 16 30.97 7.44 28.61 5.54 7.27 26.46 7.27"/><polygon class="cls-2" points="16 29.16 16 9.03 24.54 9.03 22.91 27.24 16 29.16"/><text class="cls-3" transform="translate(10.57 6.4)">HTML</text><polygon class="cls-4" points="22.62 11.62 22.38 14.24 12.39 14.24 12.56 16.92 9.92 16.92 9.5 11.62 22.62 11.62"/><polygon class="cls-4" points="22.08 16.92 21.35 24.96 16 26.44 10.65 24.96 10.4 22.22 10.28 20.84 12.88 20.84 13.01 22.22 13.07 22.93 16 23.73 18.91 22.93 18.96 22.22 19.18 19.54 10.16 19.54 9.92 16.92 22.08 16.92"/><polygon class="cls-5" points="16 14.24 12.39 14.24 12.56 16.92 16 16.92 16 19.54 10.16 19.54 9.92 16.92 9.5 11.62 16 11.62 16 14.24"/><polygon class="cls-5" points="13.07 22.93 16 23.73 16 26.44 10.65 24.96 10.4 22.22 10.28 20.84 12.88 20.84 13.01 22.22 13.07 22.93"/></svg>