<svg width="177" height="34" viewBox="0 0 177 34" fill="none" xmlns="http://www.w3.org/2000/svg">
<path d="M32.0397 0.794922H0.0397339V32.7949H32.0397V0.794922Z" fill="#7F7F7F"/>
<path d="M12.8798 30.2749C11.954 30.3168 11.0371 30.0788 10.2486 29.5918C9.46014 29.1048 8.83676 28.3915 8.45978 27.5449L10.9298 26.0649C11.7498 27.7049 12.5698 27.6749 13.3498 27.5649C13.6634 27.4863 13.9414 27.3045 14.1391 27.0487C14.3368 26.793 14.4427 26.4781 14.4398 26.1549V15.4849H17.4398V26.1349C17.4478 26.7257 17.3328 27.3118 17.1021 27.8558C16.8714 28.3998 16.5301 28.8899 16.0998 29.2949C15.4338 29.8262 14.6278 30.1528 13.7798 30.2349C13.4809 30.2671 13.1803 30.2804 12.8798 30.2749Z" fill="white"/>
<path d="M28.8798 23.6749C28.1198 22.4649 26.2798 21.6749 24.9698 21.1249C24.4898 20.9249 24.0598 20.7049 23.8198 20.5749C23.5749 20.4733 23.3645 20.3032 23.2138 20.085C23.063 19.8669 22.9783 19.61 22.9698 19.3449C22.9532 19.1695 22.9731 18.9926 23.0281 18.8252C23.0831 18.6579 23.172 18.5036 23.2893 18.3722C23.4067 18.2408 23.5499 18.135 23.71 18.0615C23.8701 17.988 24.0436 17.9483 24.2198 17.9449C24.6635 17.9042 25.1085 18.0078 25.4886 18.2402C25.8688 18.4726 26.1638 18.8215 26.3298 19.2349L28.6698 17.7149C28.2954 16.9957 27.7312 16.3927 27.0384 15.9714C26.3456 15.55 25.5507 15.3265 24.7398 15.3249C23.9496 15.2483 23.153 15.3775 22.4276 15.6999C21.7021 16.0224 21.0724 16.5271 20.5998 17.1649C20.3873 17.4665 20.2346 17.8059 20.1498 18.1649C19.9276 18.9332 19.924 19.7483 20.1395 20.5185C20.355 21.2887 20.7811 21.9836 21.3698 22.5249C21.8978 22.9755 22.4912 23.343 23.1298 23.6149L24.7498 24.3249C25.4998 24.6549 26.2698 25.0549 26.4598 25.6449C26.5782 25.9734 26.5677 26.3346 26.4304 26.6556C26.293 26.9767 26.0391 27.2337 25.7198 27.3749C25.6067 27.4302 25.4898 27.477 25.3698 27.5149C24.5106 27.7449 23.5955 27.6301 22.8198 27.1949C22.283 26.8423 21.843 26.3611 21.5398 25.7949L19.0998 27.2149C19.4799 27.9904 20.0424 28.662 20.7391 29.1723C21.4358 29.6827 22.2458 30.0164 23.0998 30.1449C26.0998 30.6549 27.9998 29.7649 28.8498 28.5249C29.2091 27.9872 29.4495 27.379 29.5547 26.7409C29.6599 26.1028 29.6275 25.4495 29.4598 24.8249C29.3326 24.4117 29.1365 24.0229 28.8798 23.6749Z" fill="white"/>
<path d="M45.637 6.60038H49.7528V20.3327C49.7528 21.6021 49.4675 22.7048 48.897 23.6408C48.3328 24.5768 47.5475 25.298 46.5409 25.8045C45.5344 26.3109 44.3644 26.5642 43.0309 26.5642C41.8449 26.5642 40.7678 26.3558 39.7998 25.9391C38.8381 25.516 38.0752 24.8749 37.5111 24.0158C36.9469 23.1503 36.668 22.0637 36.6744 20.7558H40.8191C40.8319 21.2751 40.9377 21.7207 41.1365 22.0925C41.3416 22.4579 41.6205 22.74 41.9731 22.9388C42.3321 23.1311 42.7552 23.2273 43.2425 23.2273C43.7554 23.2273 44.1881 23.1183 44.5407 22.9003C44.8997 22.6759 45.1722 22.349 45.3581 21.9194C45.544 21.4899 45.637 20.961 45.637 20.3327V6.60038ZM57.3306 26.5738C56.3882 26.5738 55.5484 26.4103 54.8111 26.0834C54.0738 25.75 53.4904 25.2595 53.0609 24.612C52.6378 23.9581 52.4262 23.1439 52.4262 22.1695C52.4262 21.3488 52.5769 20.6597 52.8782 20.1019C53.1795 19.5442 53.5898 19.0954 54.1091 18.7556C54.6284 18.4158 55.2182 18.1594 55.8785 17.9863C56.5453 17.8132 57.2441 17.6914 57.9749 17.6209C58.834 17.5311 59.5264 17.4478 60.0521 17.3708C60.5778 17.2875 60.9592 17.1657 61.1964 17.0054C61.4336 16.8451 61.5522 16.6079 61.5522 16.2938V16.2361C61.5522 15.627 61.3599 15.1558 60.9753 14.8225C60.597 14.4891 60.0585 14.3224 59.3597 14.3224C58.6224 14.3224 58.0358 14.4859 57.5999 14.8128C57.1639 15.1334 56.8754 15.5373 56.7344 16.0245L52.9455 15.7168C53.1378 14.8193 53.5161 14.0435 54.0802 13.3896C54.6444 12.7293 55.3721 12.2228 56.2632 11.8702C57.1607 11.5112 58.1993 11.3317 59.3789 11.3317C60.1995 11.3317 60.9849 11.4278 61.735 11.6202C62.4915 11.8125 63.1614 12.1106 63.7448 12.5145C64.3346 12.9184 64.7994 13.4377 65.1392 14.0724C65.479 14.7007 65.6489 15.4539 65.6489 16.3323V26.2949H61.7638V24.2466H61.6484C61.4112 24.7082 61.0939 25.1153 60.6964 25.4679C60.2989 25.8141 59.8213 26.0866 59.2635 26.2853C58.7058 26.4776 58.0615 26.5738 57.3306 26.5738ZM58.5038 23.7466C59.1065 23.7466 59.6386 23.628 60.1002 23.3907C60.5618 23.1471 60.924 22.8202 61.1868 22.4099C61.4497 21.9996 61.5811 21.5348 61.5811 21.0155V19.448C61.4529 19.5313 61.2766 19.6083 61.0522 19.6788C60.8342 19.7429 60.5874 19.8038 60.3117 19.8615C60.0361 19.9128 59.7604 19.9609 59.4847 20.0057C59.209 20.0442 58.959 20.0795 58.7346 20.1115C58.2538 20.182 57.8339 20.2942 57.4749 20.4481C57.1158 20.602 56.837 20.8103 56.6382 21.0732C56.4395 21.3296 56.3401 21.6502 56.3401 22.0348C56.3401 22.5926 56.5421 23.0189 56.946 23.3138C57.3563 23.6023 57.8755 23.7466 58.5038 23.7466ZM82.069 11.524L76.905 26.2949H72.289L67.125 11.524H71.4524L74.5201 22.0925H74.6739L77.732 11.524H82.069ZM87.9807 26.5738C87.0383 26.5738 86.1985 26.4103 85.4612 26.0834C84.7239 25.75 84.1405 25.2595 83.711 24.612C83.2879 23.9581 83.0763 23.1439 83.0763 22.1695C83.0763 21.3488 83.227 20.6597 83.5283 20.1019C83.8296 19.5442 84.2399 19.0954 84.7592 18.7556C85.2785 18.4158 85.8683 18.1594 86.5286 17.9863C87.1954 17.8132 87.8942 17.6914 88.625 17.6209C89.4841 17.5311 90.1765 17.4478 90.7022 17.3708C91.2279 17.2875 91.6093 17.1657 91.8466 17.0054C92.0838 16.8451 92.2024 16.6079 92.2024 16.2938V16.2361C92.2024 15.627 92.01 15.1558 91.6254 14.8225C91.2471 14.4891 90.7086 14.3224 90.0098 14.3224C89.2725 14.3224 88.6859 14.4859 88.25 14.8128C87.814 15.1334 87.5255 15.5373 87.3845 16.0245L83.5956 15.7168C83.7879 14.8193 84.1662 14.0435 84.7304 13.3896C85.2945 12.7293 86.0222 12.2228 86.9133 11.8702C87.8108 11.5112 88.8494 11.3317 90.029 11.3317C90.8496 11.3317 91.635 11.4278 92.3851 11.6202C93.1416 11.8125 93.8115 12.1106 94.3949 12.5145C94.9847 12.9184 95.4495 13.4377 95.7893 14.0724C96.1291 14.7007 96.299 15.4539 96.299 16.3323V26.2949H92.4139V24.2466H92.2985C92.0613 24.7082 91.744 25.1153 91.3465 25.4679C90.949 25.8141 90.4714 26.0866 89.9136 26.2853C89.3559 26.4776 88.7116 26.5738 87.9807 26.5738ZM89.1539 23.7466C89.7566 23.7466 90.2887 23.628 90.7503 23.3907C91.2119 23.1471 91.5741 22.8202 91.8369 22.4099C92.0998 21.9996 92.2312 21.5348 92.2312 21.0155V19.448C92.103 19.5313 91.9267 19.6083 91.7023 19.6788C91.4843 19.7429 91.2375 19.8038 90.9618 19.8615C90.6862 19.9128 90.4105 19.9609 90.1348 20.0057C89.8591 20.0442 89.6091 20.0795 89.3847 20.1115C88.9039 20.182 88.484 20.2942 88.125 20.4481C87.766 20.602 87.4871 20.8103 87.2883 21.0732C87.0896 21.3296 86.9902 21.6502 86.9902 22.0348C86.9902 22.5926 87.1922 23.0189 87.5961 23.3138C88.0064 23.6023 88.5257 23.7466 89.1539 23.7466ZM111.767 15.736L108.017 15.9668C107.953 15.6463 107.815 15.3578 107.603 15.1013C107.392 14.8385 107.113 14.6301 106.767 14.4763C106.427 14.316 106.02 14.2359 105.545 14.2359C104.911 14.2359 104.375 14.3705 103.939 14.6398C103.503 14.9026 103.285 15.2552 103.285 15.6976C103.285 16.0502 103.426 16.3483 103.708 16.5919C103.991 16.8355 104.475 17.031 105.161 17.1785L107.834 17.717C109.27 18.0119 110.341 18.4863 111.046 19.1403C111.751 19.7942 112.104 20.6533 112.104 21.7175C112.104 22.6855 111.818 23.535 111.248 24.2658C110.684 24.9967 109.908 25.5673 108.921 25.9776C107.94 26.3815 106.808 26.5834 105.526 26.5834C103.571 26.5834 102.013 26.1763 100.852 25.3621C99.6984 24.5415 99.0221 23.426 98.8233 22.0156L102.853 21.804C102.974 22.4002 103.269 22.8554 103.737 23.1696C104.205 23.4773 104.805 23.6312 105.536 23.6312C106.254 23.6312 106.831 23.4933 107.267 23.2176C107.709 22.9356 107.933 22.5733 107.94 22.131C107.933 21.7592 107.776 21.4546 107.469 21.2174C107.161 20.9738 106.686 20.7879 106.045 20.6597L103.487 20.15C102.045 19.8615 100.971 19.3614 100.266 18.6498C99.567 17.9382 99.2176 17.031 99.2176 15.9284C99.2176 14.9795 99.474 14.1621 99.9869 13.4762C100.506 12.7902 101.234 12.2613 102.17 11.8894C103.112 11.5176 104.215 11.3317 105.478 11.3317C107.344 11.3317 108.812 11.726 109.882 12.5145C110.959 13.3031 111.588 14.3769 111.767 15.736ZM121.357 26.5834C119.844 26.5834 118.543 26.2629 117.453 25.6218C116.369 24.9743 115.536 24.0767 114.953 22.9292C114.376 21.7816 114.087 20.4609 114.087 18.9672C114.087 17.4542 114.379 16.1271 114.962 14.9859C115.552 13.8384 116.389 12.944 117.472 12.3029C118.556 11.6554 119.844 11.3317 121.338 11.3317C122.626 11.3317 123.755 11.5657 124.723 12.0337C125.691 12.5017 126.457 13.1588 127.021 14.0051C127.585 14.8513 127.896 15.845 127.954 16.9862H124.088C123.979 16.2489 123.691 15.6559 123.223 15.2071C122.761 14.7519 122.155 14.5244 121.405 14.5244C120.771 14.5244 120.216 14.6975 119.742 15.0436C119.274 15.3834 118.908 15.8803 118.645 16.5342C118.382 17.1881 118.251 17.9799 118.251 18.9095C118.251 19.8519 118.379 20.6533 118.636 21.3136C118.899 21.9739 119.267 22.4772 119.742 22.8234C120.216 23.1696 120.771 23.3427 121.405 23.3427C121.873 23.3427 122.293 23.2465 122.665 23.0542C123.043 22.8618 123.354 22.583 123.598 22.2175C123.848 21.8457 124.011 21.4001 124.088 20.8808H127.954C127.89 22.0092 127.582 23.0029 127.031 23.862C126.486 24.7146 125.733 25.3814 124.771 25.8622C123.809 26.343 122.671 26.5834 121.357 26.5834ZM130.577 26.2949V11.524H134.549V14.1012H134.702C134.972 13.1845 135.424 12.4921 136.058 12.0241C136.693 11.5497 137.424 11.3124 138.251 11.3124C138.456 11.3124 138.677 11.3253 138.914 11.3509C139.152 11.3766 139.36 11.4118 139.539 11.4567V15.0917C139.347 15.034 139.081 14.9827 138.741 14.9379C138.402 14.893 138.091 14.8705 137.809 14.8705C137.206 14.8705 136.667 15.002 136.193 15.2648C135.725 15.5213 135.353 15.8803 135.077 16.3419C134.808 16.8035 134.674 17.3356 134.674 17.9382V26.2949H130.577ZM141.658 26.2949V11.524H145.754V26.2949H141.658ZM143.715 9.61995C143.106 9.61995 142.584 9.418 142.148 9.01411C141.718 8.60381 141.504 8.11337 141.504 7.54279C141.504 6.97862 141.718 6.49459 142.148 6.0907C142.584 5.6804 143.106 5.47525 143.715 5.47525C144.324 5.47525 144.844 5.6804 145.273 6.0907C145.709 6.49459 145.927 6.97862 145.927 7.54279C145.927 8.11337 145.709 8.60381 145.273 9.01411C144.844 9.418 144.324 9.61995 143.715 9.61995ZM149.036 31.834V11.524H153.075V14.0051H153.257C153.437 13.6076 153.697 13.2037 154.036 12.7934C154.383 12.3767 154.831 12.0305 155.383 11.7548C155.94 11.4727 156.633 11.3317 157.46 11.3317C158.537 11.3317 159.531 11.6138 160.441 12.1779C161.351 12.7357 162.079 13.5787 162.624 14.7071C163.169 15.829 163.441 17.2362 163.441 18.9287C163.441 20.5763 163.175 21.9675 162.643 23.1023C162.117 24.2306 161.399 25.0865 160.489 25.6699C159.585 26.2468 158.572 26.5353 157.45 26.5353C156.655 26.5353 155.979 26.4039 155.421 26.1411C154.87 25.8782 154.418 25.548 154.065 25.1506C153.713 24.7467 153.443 24.3396 153.257 23.9293H153.132V31.834H149.036ZM153.046 18.9095C153.046 19.7878 153.168 20.5539 153.411 21.2078C153.655 21.8617 154.007 22.3714 154.469 22.7368C154.931 23.0958 155.492 23.2753 156.152 23.2753C156.819 23.2753 157.383 23.0926 157.844 22.7272C158.306 22.3554 158.655 21.8425 158.893 21.1886C159.136 20.5282 159.258 19.7685 159.258 18.9095C159.258 18.0568 159.139 17.3067 158.902 16.6592C158.665 16.0117 158.316 15.5052 157.854 15.1398C157.392 14.7744 156.825 14.5917 156.152 14.5917C155.485 14.5917 154.921 14.768 154.459 15.1206C154.004 15.4732 153.655 15.9732 153.411 16.6207C153.168 17.2683 153.046 18.0312 153.046 18.9095ZM174.029 11.524V14.6013H165.134V11.524H174.029ZM167.153 7.98515H171.25V21.7559C171.25 22.1342 171.308 22.4291 171.423 22.6407C171.538 22.8458 171.699 22.9901 171.904 23.0734C172.115 23.1567 172.359 23.1984 172.635 23.1984C172.827 23.1984 173.019 23.1824 173.212 23.1503C173.404 23.1119 173.551 23.083 173.654 23.0638L174.298 26.1122C174.093 26.1763 173.805 26.25 173.433 26.3334C173.061 26.4231 172.609 26.4776 172.077 26.4969C171.09 26.5353 170.224 26.4039 169.48 26.1026C168.743 25.8013 168.169 25.3333 167.759 24.6986C167.349 24.0639 167.147 23.2625 167.153 22.2945V7.98515Z" fill="#7F7F7F"/>
</svg>
