<svg id="Layer_4" data-name="Layer 4" xmlns="http://www.w3.org/2000/svg" viewBox="0 0 32 32"><defs><style>.cls-1{fill:#f7df1e;}</style></defs><rect class="cls-1" width="32" height="32"/><path d="M12.84,29.48a4.61,4.61,0,0,1-4.42-2.73l2.47-1.48c.82,1.64,1.64,1.61,2.42,1.5a1.44,1.44,0,0,0,1.09-1.41l0-10.67h3V25.34a4.26,4.26,0,0,1-1.34,3.16,4.4,4.4,0,0,1-2.32.94A7.16,7.16,0,0,1,12.84,29.48Z"/><path d="M28.84,22.88c-.76-1.21-2.6-2-3.91-2.55-.48-.2-.91-.42-1.15-.55a1.38,1.38,0,0,1-.85-1.23,1.28,1.28,0,0,1,1.25-1.4,2.07,2.07,0,0,1,2.11,1.29l2.34-1.52a4.44,4.44,0,0,0-3.93-2.39,4.6,4.6,0,0,0-4.14,1.84,2.89,2.89,0,0,0-.45,1,4.3,4.3,0,0,0,1.22,4.36,6.84,6.84,0,0,0,1.76,1.09l1.62.71c.75.33,1.52.73,1.71,1.32a1.38,1.38,0,0,1-.74,1.73,2.55,2.55,0,0,1-.35.14,3.41,3.41,0,0,1-2.55-.32A3.85,3.85,0,0,1,21.5,25l-2.44,1.42a5.34,5.34,0,0,0,4,2.93c3,.51,4.9-.38,5.75-1.62a4.54,4.54,0,0,0,.61-3.7A3.84,3.84,0,0,0,28.84,22.88Z"/></svg>