<svg width="155" height="48" viewBox="0 0 155 48" fill="none" xmlns="http://www.w3.org/2000/svg">
<path d="M15.5455 10.8272V45.091L38 31.9487V18.8064V1.90918H23.18" stroke="#1B1B1B" stroke-width="3"/>
<path d="M15.4714 10.5452H32.8181H0" stroke="#1B1B1B" stroke-width="3"/>
<path d="M37.9999 15.7275H25.909" stroke="#1B1B1B" stroke-width="3"/>
<path d="M53.321 32V14.5455H60.5312C61.838 14.5455 62.9659 14.8011 63.9147 15.3125C64.8693 15.8182 65.6051 16.5256 66.1221 17.4347C66.6392 18.3381 66.8977 19.3892 66.8977 20.5881C66.8977 21.7926 66.6335 22.8466 66.1051 23.75C65.5824 24.6477 64.8352 25.3437 63.8636 25.8381C62.892 26.3324 61.7386 26.5795 60.4034 26.5795H55.9545V23.2557H59.6193C60.2557 23.2557 60.7869 23.1449 61.213 22.9233C61.6449 22.7017 61.9716 22.392 62.1932 21.9943C62.4147 21.5909 62.5255 21.1222 62.5255 20.5881C62.5255 20.0483 62.4147 19.5824 62.1932 19.1903C61.9716 18.7926 61.6449 18.4858 61.213 18.2699C60.7812 18.054 60.25 17.946 59.6193 17.946H57.5397V32H53.321ZM74.8302 32.2472C73.4552 32.2472 72.2734 31.9659 71.2848 31.4034C70.3018 30.8352 69.5433 30.0455 69.0092 29.0341C68.4808 28.017 68.2166 26.8381 68.2166 25.4972C68.2166 24.1506 68.4808 22.9716 69.0092 21.9602C69.5433 20.9432 70.3018 20.1534 71.2848 19.5909C72.2734 19.0227 73.4552 18.7386 74.8302 18.7386C76.2052 18.7386 77.3842 19.0227 78.3672 19.5909C79.3558 20.1534 80.1143 20.9432 80.6427 21.9602C81.1768 22.9716 81.4439 24.1506 81.4439 25.4972C81.4439 26.8381 81.1768 28.017 80.6427 29.0341C80.1143 30.0455 79.3558 30.8352 78.3672 31.4034C77.3842 31.9659 76.2052 32.2472 74.8302 32.2472ZM74.8558 29.1023C75.3558 29.1023 75.7791 28.9489 76.1257 28.642C76.4723 28.3352 76.7365 27.9091 76.9183 27.3636C77.1058 26.8182 77.1995 26.1875 77.1995 25.4716C77.1995 24.7443 77.1058 24.108 76.9183 23.5625C76.7365 23.017 76.4723 22.5909 76.1257 22.2841C75.7791 21.9773 75.3558 21.8239 74.8558 21.8239C74.3387 21.8239 73.9012 21.9773 73.5433 22.2841C73.191 22.5909 72.9211 23.017 72.7336 23.5625C72.5518 24.108 72.4609 24.7443 72.4609 25.4716C72.4609 26.1875 72.5518 26.8182 72.7336 27.3636C72.9211 27.9091 73.191 28.3352 73.5433 28.642C73.9012 28.9489 74.3387 29.1023 74.8558 29.1023ZM83.5788 32V18.9091H87.6271V21.2955H87.7635C88.0021 20.4318 88.3913 19.7898 88.9311 19.3693C89.4709 18.9432 90.0987 18.7301 90.8146 18.7301C91.0078 18.7301 91.2066 18.7443 91.4112 18.7727C91.6157 18.7955 91.8061 18.8324 91.9822 18.8835V22.5057C91.7834 22.4375 91.522 22.3835 91.1981 22.3438C90.8799 22.304 90.5959 22.2841 90.3459 22.2841C89.8515 22.2841 89.4055 22.3949 89.0078 22.6165C88.6157 22.8324 88.3061 23.1364 88.0788 23.5284C87.8572 23.9148 87.7464 24.3693 87.7464 24.892V32H83.5788ZM101.679 18.9091V21.9773H93.4204V18.9091H101.679ZM95.1505 15.7727H99.3182V27.8835C99.3182 28.1392 99.3579 28.3466 99.4375 28.5057C99.5227 28.6591 99.6449 28.7699 99.8039 28.8381C99.963 28.9006 100.153 28.9318 100.375 28.9318C100.534 28.9318 100.702 28.9176 100.878 28.8892C101.06 28.8551 101.196 28.8267 101.287 28.804L101.918 31.8125C101.719 31.8693 101.437 31.9403 101.074 32.0256C100.716 32.1108 100.287 32.1648 99.7869 32.1875C98.8096 32.233 97.9716 32.1193 97.2727 31.8466C96.5795 31.5682 96.0483 31.1364 95.6789 30.5511C95.3153 29.9659 95.1392 29.2301 95.1505 28.3438V15.7727ZM111.246 18.9091V21.9773H102.825V18.9091H111.246ZM104.581 32V18.2443C104.581 17.233 104.771 16.3949 105.152 15.7301C105.533 15.0597 106.061 14.5597 106.737 14.2301C107.413 13.8949 108.195 13.7273 109.081 13.7273C109.66 13.7273 110.206 13.7727 110.717 13.8636C111.234 13.9489 111.618 14.0256 111.868 14.0938L111.203 17.1449C111.05 17.0937 110.862 17.0511 110.641 17.017C110.425 16.983 110.22 16.9659 110.027 16.9659C109.538 16.9659 109.203 17.0739 109.021 17.2898C108.839 17.5057 108.749 17.8011 108.749 18.1761V32H104.581ZM118.94 32.2472C117.565 32.2472 116.383 31.9659 115.394 31.4034C114.411 30.8352 113.653 30.0455 113.119 29.0341C112.59 28.017 112.326 26.8381 112.326 25.4972C112.326 24.1506 112.59 22.9716 113.119 21.9602C113.653 20.9432 114.411 20.1534 115.394 19.5909C116.383 19.0227 117.565 18.7386 118.94 18.7386C120.315 18.7386 121.494 19.0227 122.477 19.5909C123.465 20.1534 124.224 20.9432 124.752 21.9602C125.286 22.9716 125.553 24.1506 125.553 25.4972C125.553 26.8381 125.286 28.017 124.752 29.0341C124.224 30.0455 123.465 30.8352 122.477 31.4034C121.494 31.9659 120.315 32.2472 118.94 32.2472ZM118.965 29.1023C119.465 29.1023 119.888 28.9489 120.235 28.642C120.582 28.3352 120.846 27.9091 121.028 27.3636C121.215 26.8182 121.309 26.1875 121.309 25.4716C121.309 24.7443 121.215 24.108 121.028 23.5625C120.846 23.017 120.582 22.5909 120.235 22.2841C119.888 21.9773 119.465 21.8239 118.965 21.8239C118.448 21.8239 118.011 21.9773 117.653 22.2841C117.3 22.5909 117.031 23.017 116.843 23.5625C116.661 24.108 116.57 24.7443 116.57 25.4716C116.57 26.1875 116.661 26.8182 116.843 27.3636C117.031 27.9091 117.3 28.3352 117.653 28.642C118.011 28.9489 118.448 29.1023 118.965 29.1023ZM131.856 14.5455V32H127.688V14.5455H131.856ZM134.508 32V18.9091H138.676V32H134.508ZM136.597 17.3835C136.011 17.3835 135.508 17.1903 135.088 16.804C134.668 16.4119 134.457 15.9403 134.457 15.3892C134.457 14.8437 134.668 14.3778 135.088 13.9915C135.508 13.5994 136.011 13.4034 136.597 13.4034C137.187 13.4034 137.69 13.5994 138.105 13.9915C138.526 14.3778 138.736 14.8437 138.736 15.3892C138.736 15.9403 138.526 16.4119 138.105 16.804C137.69 17.1903 137.187 17.3835 136.597 17.3835ZM147.44 32.2472C146.065 32.2472 144.883 31.9659 143.894 31.4034C142.911 30.8352 142.153 30.0455 141.619 29.0341C141.09 28.017 140.826 26.8381 140.826 25.4972C140.826 24.1506 141.09 22.9716 141.619 21.9602C142.153 20.9432 142.911 20.1534 143.894 19.5909C144.883 19.0227 146.065 18.7386 147.44 18.7386C148.815 18.7386 149.994 19.0227 150.977 19.5909C151.965 20.1534 152.724 20.9432 153.252 21.9602C153.786 22.9716 154.053 24.1506 154.053 25.4972C154.053 26.8381 153.786 28.017 153.252 29.0341C152.724 30.0455 151.965 30.8352 150.977 31.4034C149.994 31.9659 148.815 32.2472 147.44 32.2472ZM147.465 29.1023C147.965 29.1023 148.388 28.9489 148.735 28.642C149.082 28.3352 149.346 27.9091 149.528 27.3636C149.715 26.8182 149.809 26.1875 149.809 25.4716C149.809 24.7443 149.715 24.108 149.528 23.5625C149.346 23.017 149.082 22.5909 148.735 22.2841C148.388 21.9773 147.965 21.8239 147.465 21.8239C146.948 21.8239 146.511 21.9773 146.153 22.2841C145.8 22.5909 145.531 23.017 145.343 23.5625C145.161 24.108 145.07 24.7443 145.07 25.4716C145.07 26.1875 145.161 26.8182 145.343 27.3636C145.531 27.9091 145.8 28.3352 146.153 28.642C146.511 28.9489 146.948 29.1023 147.465 29.1023Z" fill="#1B1B1B"/>
</svg>
