<svg width="153" height="36" viewBox="0 0 153 36" fill="none" xmlns="http://www.w3.org/2000/svg">
<path d="M49.8214 21.854C50.4941 21.854 51.1395 22.1198 51.6173 22.5933C52.0951 23.0668 52.3671 23.7097 52.3732 24.3823V29.6675C52.3702 30.0025 52.301 30.3337 52.17 30.6421C52.0391 30.9505 51.8485 31.2305 51.6095 31.4653C51.3705 31.7001 51.0871 31.8858 50.7765 32.0112C50.466 32.1365 50.1338 32.1988 49.799 32.1958H43.6251C42.9546 32.1957 42.3112 31.9297 41.837 31.4556C41.363 30.9814 41.0968 30.338 41.0968 29.6675V24.3823C41.0969 23.7118 41.3629 23.0684 41.837 22.5942C42.3112 22.1201 42.9546 21.8541 43.6251 21.854H49.8214ZM44.6964 23.2896C44.344 23.2955 44.008 23.4396 43.7609 23.6909C43.5137 23.9423 43.3751 24.2808 43.3751 24.6333V29.394H43.3976C43.4036 29.7404 43.5451 30.0711 43.7921 30.314C44.0393 30.5568 44.3724 30.6929 44.7189 30.6929H48.7736C49.1239 30.6929 49.4604 30.5539 49.7081 30.3062C49.9559 30.0584 50.0948 29.722 50.0948 29.3716V24.6333C50.0949 24.4549 50.0593 24.2783 49.9904 24.1138C49.9214 23.9492 49.8207 23.7994 49.6935 23.6743C49.5663 23.5492 49.4148 23.4514 49.2491 23.3853C49.0836 23.3192 48.9068 23.2866 48.7286 23.2896H44.6964Z" fill="#7F7F7F"/>
<path d="M49.8214 21.854C50.4941 21.854 51.1395 22.1198 51.6173 22.5933C52.0951 23.0668 52.3671 23.7097 52.3732 24.3823V29.6675C52.3702 30.0025 52.301 30.3337 52.17 30.6421C52.0391 30.9505 51.8485 31.2305 51.6095 31.4653C51.3705 31.7001 51.0871 31.8858 50.7765 32.0112C50.466 32.1365 50.1338 32.1988 49.799 32.1958H43.6251C42.9546 32.1957 42.3112 31.9297 41.837 31.4556C41.363 30.9814 41.0968 30.338 41.0968 29.6675V24.3823C41.0969 23.7118 41.3629 23.0684 41.837 22.5942C42.3112 22.1201 42.9546 21.8541 43.6251 21.854H49.8214ZM44.6964 23.2896C44.344 23.2955 44.008 23.4396 43.7609 23.6909C43.5137 23.9423 43.3751 24.2808 43.3751 24.6333V29.394H43.3976C43.4036 29.7404 43.5451 30.0711 43.7921 30.314C44.0393 30.5568 44.3724 30.6929 44.7189 30.6929H48.7736C49.1239 30.6929 49.4604 30.5539 49.7081 30.3062C49.9559 30.0584 50.0948 29.722 50.0948 29.3716V24.6333C50.0949 24.4549 50.0593 24.2783 49.9904 24.1138C49.9214 23.9492 49.8207 23.7994 49.6935 23.6743C49.5663 23.5492 49.4148 23.4514 49.2491 23.3853C49.0836 23.3192 48.9068 23.2866 48.7286 23.2896H44.6964Z" stroke="#7F7F7F"/>
<path d="M56.0181 29.5308C56.0181 29.8266 56.1352 30.1105 56.3442 30.3198C56.5536 30.5292 56.8382 30.647 57.1343 30.647H63.6265V32.2192H56.0181C55.4139 32.2192 54.8339 31.9794 54.4067 31.5522C53.9795 31.125 53.7397 30.5451 53.7397 29.9409V21.854H56.0181V29.5308Z" fill="#7F7F7F"/>
<path d="M56.0181 29.5308C56.0181 29.8266 56.1352 30.1105 56.3442 30.3198C56.5536 30.5292 56.8382 30.647 57.1343 30.647H63.6265V32.2192H56.0181C55.4139 32.2192 54.8339 31.9794 54.4067 31.5522C53.9795 31.125 53.7397 30.5451 53.7397 29.9409V21.854H56.0181V29.5308Z" stroke="#7F7F7F"/>
<path d="M28.1118 24.9744V33.0154C28.0708 33.6457 27.7871 34.2359 27.3198 34.6609C26.8524 35.0859 26.2374 35.3127 25.606 35.2937H17.4966V33.7449L24.4897 33.7908C24.6412 33.7969 24.7931 33.7726 24.9351 33.7195C25.077 33.6664 25.2066 33.5851 25.3169 33.4812C25.4272 33.3773 25.5162 33.2526 25.5776 33.114C25.639 32.9756 25.6713 32.826 25.6743 32.6746V24.9744H28.1118Z" fill="#7F7F7F"/>
<path d="M28.1118 24.9744V33.0154C28.0708 33.6457 27.7871 34.2359 27.3198 34.6609C26.8524 35.0859 26.2374 35.3127 25.606 35.2937H17.4966V33.7449L24.4897 33.7908C24.6412 33.7969 24.7931 33.7726 24.9351 33.7195C25.077 33.6664 25.2066 33.5851 25.3169 33.4812C25.4272 33.3773 25.5162 33.2526 25.5776 33.114C25.639 32.9756 25.6713 32.826 25.6743 32.6746V24.9744H28.1118Z" stroke="#7F7F7F"/>
<path d="M19.7749 29.53C19.7749 29.826 19.8918 30.1107 20.1011 30.3201C20.3104 30.5294 20.5951 30.6462 20.8911 30.6462L26.1987 30.6013V32.1726H19.7749C19.1707 32.1726 18.5908 31.9328 18.1636 31.5056C17.7366 31.0785 17.4967 30.4992 17.4966 29.8953V24.9744H19.7749V29.53Z" fill="#7F7F7F"/>
<path d="M19.7749 29.53C19.7749 29.826 19.8918 30.1107 20.1011 30.3201C20.3104 30.5294 20.5951 30.6462 20.8911 30.6462L26.1987 30.6013V32.1726H19.7749C19.1707 32.1726 18.5908 31.9328 18.1636 31.5056C17.7366 31.0785 17.4967 30.4992 17.4966 29.8953V24.9744H19.7749V29.53Z" stroke="#7F7F7F"/>
<path d="M3.12219 21.6724C3.4582 21.6731 3.78695 21.7731 4.06653 21.9595C4.346 22.1459 4.56457 22.4104 4.69446 22.7202L7.95227 29.896L11.1866 22.7202C11.3166 22.4104 11.535 22.1458 11.8146 21.9595C12.094 21.7732 12.4221 21.6732 12.7579 21.6724H13.8292C14.2804 21.6783 14.7113 21.8602 15.0304 22.1792C15.3495 22.4983 15.5313 22.9301 15.5372 23.3813V32.2192H13.2599V23.6772L9.27258 31.9233C9.04461 32.3561 6.76778 32.3333 6.56262 31.9233L2.59875 23.6772V32.2192H0.320435V23.3813C0.326335 22.9301 0.508133 22.4983 0.827271 22.1792C1.14641 21.8601 1.57813 21.6783 2.02942 21.6724H3.12219Z" fill="#7F7F7F"/>
<path d="M3.12219 21.6724C3.4582 21.6731 3.78695 21.7731 4.06653 21.9595C4.346 22.1459 4.56457 22.4104 4.69446 22.7202L7.95227 29.896L11.1866 22.7202C11.3166 22.4104 11.535 22.1458 11.8146 21.9595C12.094 21.7732 12.4221 21.6732 12.7579 21.6724H13.8292C14.2804 21.6783 14.7113 21.8602 15.0304 22.1792C15.3495 22.4983 15.5313 22.9301 15.5372 23.3813V32.2192H13.2599V23.6772L9.27258 31.9233C9.04461 32.3561 6.76778 32.3333 6.56262 31.9233L2.59875 23.6772V32.2192H0.320435V23.3813C0.326335 22.9301 0.508133 22.4983 0.827271 22.1792C1.14641 21.8601 1.57813 21.6783 2.02942 21.6724H3.12219Z" stroke="#7F7F7F"/>
<path d="M48.0444 29.052L53.147 33.7903H50.4819L45.3794 29.052H48.0444Z" fill="#7F7F7F"/>
<path d="M48.0444 29.052L53.147 33.7903H50.4819L45.3794 29.052H48.0444Z" stroke="#7F7F7F"/>
<path d="M39.8662 21.7627V23.1973H33.0322C31.5292 23.1977 31.5292 26.272 33.0322 26.2725H36.9736C37.6865 26.2725 38.3699 26.5565 38.874 27.0605C39.3781 27.5647 39.6611 28.2481 39.6611 28.9609V29.5303C39.6611 30.2431 39.3781 30.9266 38.874 31.4307C38.3699 31.9348 37.6865 32.2187 36.9736 32.2188H29.5928V30.7607H36.4268C37.9075 30.7607 37.9075 27.6855 36.4268 27.6855H32.2812C31.5683 27.6855 30.884 27.4016 30.3799 26.8975C29.876 26.3934 29.5928 25.7099 29.5928 24.9971V24.4502C29.5926 24.0895 29.665 23.7325 29.8057 23.4004C29.9464 23.0682 30.1528 22.7674 30.4121 22.5166C30.6714 22.2658 30.9787 22.07 31.3154 21.9404C31.6521 21.8108 32.0115 21.7505 32.3721 21.7627H39.8662Z" fill="#7F7F7F"/>
<path d="M39.8662 21.7627V23.1973H33.0322C31.5292 23.1977 31.5292 26.272 33.0322 26.2725H36.9736C37.6865 26.2725 38.3699 26.5565 38.874 27.0605C39.3781 27.5647 39.6611 28.2481 39.6611 28.9609V29.5303C39.6611 30.2431 39.3781 30.9266 38.874 31.4307C38.3699 31.9348 37.6865 32.2187 36.9736 32.2188H29.5928V30.7607H36.4268C37.9075 30.7607 37.9075 27.6855 36.4268 27.6855H32.2812C31.5683 27.6855 30.884 27.4016 30.3799 26.8975C29.876 26.3934 29.5928 25.7099 29.5928 24.9971V24.4502C29.5926 24.0895 29.665 23.7325 29.8057 23.4004C29.9464 23.0682 30.1528 22.7674 30.4121 22.5166C30.6714 22.2658 30.9787 22.07 31.3154 21.9404C31.6521 21.8108 32.0115 21.7505 32.3721 21.7627H39.8662Z" stroke="#7F7F7F"/>
<path d="M66.2688 28.8704C66.7278 28.8704 67.1678 29.0528 67.4924 29.3772C67.8171 29.7019 68.0002 30.1426 68.0002 30.6018C68.0002 31.0609 67.8171 31.5008 67.4924 31.8254C67.1678 32.1501 66.7279 32.3332 66.2688 32.3333C65.8096 32.3333 65.3689 32.1501 65.0442 31.8254C64.7198 31.5008 64.5374 31.0608 64.5374 30.6018C64.5374 30.1426 64.7195 29.7019 65.0442 29.3772C65.3689 29.0525 65.8096 28.8704 66.2688 28.8704ZM66.8 29.3176C66.5462 29.2126 66.2667 29.1849 65.9973 29.2385C65.7278 29.2922 65.4807 29.4251 65.2864 29.6194C65.0921 29.8137 64.9592 30.0608 64.9055 30.3303C64.8519 30.5997 64.8796 30.8792 64.9846 31.1331C65.0898 31.3869 65.2679 31.6044 65.4963 31.7571C65.7249 31.9098 65.994 31.9915 66.2688 31.9915C66.6373 31.9914 66.9907 31.8448 67.2512 31.5842C67.5118 31.3237 67.6584 30.9703 67.6584 30.6018C67.6584 30.327 67.5768 30.0579 67.4241 29.8293C67.2714 29.6009 67.0539 29.4228 66.8 29.3176Z" fill="#7F7F7F"/>
<path d="M66.2688 28.8704C66.7278 28.8704 67.1678 29.0528 67.4924 29.3772C67.8171 29.7019 68.0002 30.1426 68.0002 30.6018C68.0002 31.0609 67.8171 31.5008 67.4924 31.8254C67.1678 32.1501 66.7279 32.3332 66.2688 32.3333C65.8096 32.3333 65.3689 32.1501 65.0442 31.8254C64.7198 31.5008 64.5374 31.0608 64.5374 30.6018C64.5374 30.1426 64.7195 29.7019 65.0442 29.3772C65.3689 29.0525 65.8096 28.8704 66.2688 28.8704ZM66.8 29.3176C66.5462 29.2126 66.2667 29.1849 65.9973 29.2385C65.7278 29.2922 65.4807 29.4251 65.2864 29.6194C65.0921 29.8137 64.9592 30.0608 64.9055 30.3303C64.8519 30.5997 64.8796 30.8792 64.9846 31.1331C65.0898 31.3869 65.2679 31.6044 65.4963 31.7571C65.7249 31.9098 65.994 31.9915 66.2688 31.9915C66.6373 31.9914 66.9907 31.8448 67.2512 31.5842C67.5118 31.3237 67.6584 30.9703 67.6584 30.6018C67.6584 30.327 67.5768 30.0579 67.4241 29.8293C67.2714 29.6009 67.0539 29.4228 66.8 29.3176Z" stroke="#7F7F7F"/>
<path d="M66.3599 29.759C66.4722 29.7328 66.5893 29.7328 66.7017 29.759C66.7844 29.8014 66.855 29.8645 66.9067 29.9417C66.9333 30.0308 66.9333 30.126 66.9067 30.2151C66.9174 30.2829 66.9174 30.3523 66.9067 30.4202L66.77 30.6018C66.7017 30.6532 66.6246 30.6922 66.5425 30.7161L66.9526 31.468H66.6792L66.1782 30.8069H66.0415V31.468H65.7905V29.759H66.3599ZM66.7241 30.1233C66.6351 30.0968 66.5397 30.0967 66.4507 30.1233H66.0415V30.6018H66.3149C66.4115 30.6302 66.5143 30.6302 66.6108 30.6018C66.6472 30.5712 66.6761 30.5328 66.6958 30.4895C66.7154 30.4463 66.725 30.3993 66.7241 30.3518C66.7502 30.2781 66.7502 30.197 66.7241 30.1233Z" fill="#7F7F7F"/>
<path d="M66.3599 29.759C66.4722 29.7328 66.5893 29.7328 66.7017 29.759C66.7844 29.8014 66.855 29.8645 66.9067 29.9417C66.9333 30.0308 66.9333 30.126 66.9067 30.2151C66.9174 30.2829 66.9174 30.3523 66.9067 30.4202L66.77 30.6018C66.7017 30.6532 66.6246 30.6922 66.5425 30.7161L66.9526 31.468H66.6792L66.1782 30.8069H66.0415V31.468H65.7905V29.759H66.3599ZM66.7241 30.1233C66.6351 30.0968 66.5397 30.0967 66.4507 30.1233H66.0415V30.6018H66.3149C66.4115 30.6302 66.5143 30.6302 66.6108 30.6018C66.6472 30.5712 66.6761 30.5328 66.6958 30.4895C66.7154 30.4463 66.725 30.3993 66.7241 30.3518C66.7502 30.2781 66.7502 30.197 66.7241 30.1233Z" stroke="#7F7F7F"/>
<path d="M43.2614 0.303955C44.0082 0.260439 44.7559 0.375877 45.4547 0.642822C46.1537 0.909844 46.7884 1.3223 47.316 1.85278C47.3519 1.84776 52.0956 1.19812 57.111 8.55103C57.5467 9.20188 57.9136 9.8962 58.2047 10.6233C58.8627 12.1906 59.624 13.7132 60.483 15.1799C60.4899 15.1927 60.7264 15.6168 61.7584 15.9084C63.8543 16.6225 65.6507 18.0181 66.861 19.8723C64.4464 20.2823 63.1481 20.4875 63.1481 20.4875C63.8469 21.1336 64.6106 21.7056 65.4264 22.1956C67.431 23.6307 67.5905 24.7932 67.5905 24.7932C66.7777 24.0396 65.8363 23.4373 64.8112 23.0159C63.6266 22.4919 61.3708 21.0794 61.7125 20.0999C62.0528 19.1258 65.5699 19.1204 65.608 19.1204C64.1848 17.8835 62.5266 16.9464 60.733 16.3645C59.8221 16.0912 59.6403 15.7717 59.6403 15.7717L57.9537 12.1497C56.7495 8.80986 54.5164 5.9387 51.5758 3.94946C50.2266 3.05426 48.6392 2.58524 47.0201 2.60474C46.1589 1.90274 45.1679 1.37664 44.1041 1.05591C43.5348 0.942038 43.3519 1.21516 43.3063 1.71606C43.2607 2.21723 44.2637 3.22044 44.651 3.74438C44.9475 4.14464 45.1922 4.58071 45.3795 5.04224C46.1677 8.44278 47.4013 9.28325 47.4293 9.302C47.5321 9.39941 47.601 9.52778 47.6256 9.66724C47.6502 9.80658 47.6292 9.9498 47.566 10.0764C46.7301 11.8527 46.6 13.8806 47.2018 15.7493C47.5663 16.9794 48.2272 17.1389 48.2272 17.1389C48.0994 16.4283 48.1601 15.6964 48.4039 15.0168C48.6478 14.3372 49.0664 13.7332 49.6168 13.2659C50.6556 15.9578 52.202 18.4256 54.1725 20.5334C52.1458 19.4139 50.5148 17.6949 49.5026 15.6125C49.3209 16.1723 49.2214 16.7557 49.2067 17.344C49.0926 18.5967 47.2243 18.5968 46.3131 16.0002C45.8285 13.9695 45.9398 11.8418 46.6324 9.87231C45.5427 8.56868 44.8261 6.99369 44.5592 5.31567C44.5439 5.29201 43.3029 3.37484 42.6237 2.58228C42.5116 2.39206 42.4384 2.18108 42.4098 1.96216C42.3812 1.74308 42.3971 1.51963 42.4567 1.30688C42.5162 1.09433 42.6184 0.896127 42.7565 0.723877C42.8947 0.551496 43.0667 0.408384 43.2614 0.303955Z" fill="#7F7F7F"/>
<path d="M43.2614 0.303955C44.0082 0.260439 44.7559 0.375877 45.4547 0.642822C46.1537 0.909844 46.7884 1.3223 47.316 1.85278C47.3519 1.84776 52.0956 1.19812 57.111 8.55103C57.5467 9.20188 57.9136 9.8962 58.2047 10.6233C58.8627 12.1906 59.624 13.7132 60.483 15.1799C60.4899 15.1927 60.7264 15.6168 61.7584 15.9084C63.8543 16.6225 65.6507 18.0181 66.861 19.8723C64.4464 20.2823 63.1481 20.4875 63.1481 20.4875C63.8469 21.1336 64.6106 21.7056 65.4264 22.1956C67.431 23.6307 67.5905 24.7932 67.5905 24.7932C66.7777 24.0396 65.8363 23.4373 64.8112 23.0159C63.6266 22.4919 61.3708 21.0794 61.7125 20.0999C62.0528 19.1258 65.5699 19.1204 65.608 19.1204C64.1848 17.8835 62.5266 16.9464 60.733 16.3645C59.8221 16.0912 59.6403 15.7717 59.6403 15.7717L57.9537 12.1497C56.7495 8.80986 54.5164 5.9387 51.5758 3.94946C50.2266 3.05426 48.6392 2.58524 47.0201 2.60474C46.1589 1.90274 45.1679 1.37664 44.1041 1.05591C43.5348 0.942038 43.3519 1.21516 43.3063 1.71606C43.2607 2.21723 44.2637 3.22044 44.651 3.74438C44.9475 4.14464 45.1922 4.58071 45.3795 5.04224C46.1677 8.44278 47.4013 9.28325 47.4293 9.302C47.5321 9.39941 47.601 9.52778 47.6256 9.66724C47.6502 9.80658 47.6292 9.9498 47.566 10.0764C46.7301 11.8527 46.6 13.8806 47.2018 15.7493C47.5663 16.9794 48.2272 17.1389 48.2272 17.1389C48.0994 16.4283 48.1601 15.6964 48.4039 15.0168C48.6478 14.3372 49.0664 13.7332 49.6168 13.2659C50.6556 15.9578 52.202 18.4256 54.1725 20.5334C52.1458 19.4139 50.5148 17.6949 49.5026 15.6125C49.3209 16.1723 49.2214 16.7557 49.2067 17.344C49.0926 18.5967 47.2243 18.5968 46.3131 16.0002C45.8285 13.9695 45.9398 11.8418 46.6324 9.87231C45.5427 8.56868 44.8261 6.99369 44.5592 5.31567C44.5439 5.29201 43.3029 3.37484 42.6237 2.58228C42.5116 2.39206 42.4384 2.18108 42.4098 1.96216C42.3812 1.74308 42.3971 1.51963 42.4567 1.30688C42.5162 1.09433 42.6184 0.896127 42.7565 0.723877C42.8947 0.551496 43.0667 0.408384 43.2614 0.303955Z" stroke="#7F7F7F"/>
<path d="M47.3159 4.54199C47.5386 4.42159 47.7984 4.38978 48.0435 4.45312C48.2884 4.51648 48.5008 4.66969 48.6372 4.88281C49.1106 5.5591 48.3571 6.10206 48.3413 6.11328C48.1437 5.50848 47.7897 4.96675 47.3159 4.54199Z" fill="#7F7F7F"/>
<path d="M47.3159 4.54199C47.5386 4.42159 47.7984 4.38978 48.0435 4.45312C48.2884 4.51648 48.5008 4.66969 48.6372 4.88281C49.1106 5.5591 48.3571 6.10206 48.3413 6.11328C48.1437 5.50848 47.7897 4.96675 47.3159 4.54199Z" stroke="#7F7F7F"/>
<path d="M48.341 6.11311C48.341 6.11311 49.0472 5.36136 48.6372 4.88298C48.4834 4.69098 48.2715 4.55393 48.0334 4.49234C47.7952 4.43074 47.5435 4.44791 47.3159 4.54127" fill="#7F7F7F"/>
<path d="M73.7117 7.60062H78.8469L84.2706 20.8329H84.5014L89.9251 7.60062H95.0603V27.2952H91.0214V14.4764H90.8579L85.7612 27.199H83.0109L77.9141 14.4283H77.7507V27.2952H73.7117V7.60062ZM100.943 32.8343C100.424 32.8343 99.9367 32.7926 99.4815 32.7092C99.0327 32.6323 98.6609 32.5329 98.366 32.4111L99.2892 29.3531C99.77 29.5005 100.203 29.5807 100.587 29.5935C100.978 29.6063 101.315 29.5166 101.597 29.3242C101.886 29.1319 102.12 28.805 102.299 28.3434L102.54 27.7183L97.2408 12.5243H101.549L104.607 23.3716H104.761L107.848 12.5243H112.185L106.444 28.8915C106.168 29.6865 105.793 30.3788 105.319 30.9687C104.851 31.5649 104.258 32.0233 103.54 32.3438C102.822 32.6708 101.956 32.8343 100.943 32.8343ZM126.571 16.7363L122.821 16.9671C122.757 16.6465 122.619 16.358 122.407 16.1016C122.196 15.8387 121.917 15.6304 121.571 15.4765C121.231 15.3162 120.824 15.2361 120.349 15.2361C119.715 15.2361 119.179 15.3707 118.743 15.64C118.307 15.9028 118.089 16.2554 118.089 16.6978C118.089 17.0504 118.23 17.3485 118.512 17.5921C118.795 17.8358 119.279 18.0313 119.965 18.1787L122.638 18.7173C124.074 19.0122 125.145 19.4866 125.85 20.1405C126.555 20.7944 126.908 21.6535 126.908 22.7177C126.908 23.6858 126.622 24.5352 126.052 25.2661C125.488 25.9969 124.712 26.5675 123.725 26.9778C122.744 27.3817 121.612 27.5837 120.33 27.5837C118.375 27.5837 116.817 27.1766 115.656 26.3624C114.502 25.5418 113.826 24.4263 113.627 23.0158L117.657 22.8043C117.778 23.4005 118.073 23.8557 118.541 24.1698C119.009 24.4775 119.609 24.6314 120.34 24.6314C121.058 24.6314 121.635 24.4936 122.071 24.2179C122.513 23.9358 122.737 23.5736 122.744 23.1312C122.737 22.7594 122.58 22.4549 122.273 22.2177C121.965 21.974 121.49 21.7881 120.849 21.6599L118.291 21.1502C116.849 20.8617 115.775 20.3617 115.07 19.6501C114.371 18.9384 114.022 18.0313 114.022 16.9286C114.022 15.9798 114.278 15.1624 114.791 14.4764C115.31 13.7904 116.038 13.2615 116.974 12.8897C117.916 12.5178 119.019 12.3319 120.282 12.3319C122.148 12.3319 123.616 12.7262 124.686 13.5148C125.763 14.3033 126.392 15.3771 126.571 16.7363ZM139.248 32.8343V24.9295H139.123C138.931 25.3398 138.658 25.7469 138.306 26.1508C137.959 26.5483 137.507 26.8785 136.95 27.1413C136.398 27.4042 135.725 27.5356 134.93 27.5356C133.808 27.5356 132.792 27.2471 131.882 26.6701C130.978 26.0867 130.26 25.2308 129.728 24.1025C129.202 22.9678 128.939 21.5766 128.939 19.9289C128.939 18.2364 129.212 16.8292 129.757 15.7073C130.301 14.579 131.026 13.7359 131.93 13.1782C132.84 12.614 133.837 12.3319 134.921 12.3319C135.748 12.3319 136.437 12.473 136.988 12.7551C137.546 13.0307 137.995 13.3769 138.334 13.7936C138.681 14.2039 138.944 14.6078 139.123 15.0053H139.296V12.5243H143.335V32.8343H139.248ZM136.228 24.2756C136.889 24.2756 137.447 24.0961 137.902 23.7371C138.363 23.3716 138.716 22.862 138.96 22.208C139.21 21.5541 139.335 20.788 139.335 19.9097C139.335 19.0314 139.213 18.2685 138.969 17.621C138.726 16.9735 138.373 16.4734 137.911 16.1208C137.45 15.7682 136.889 15.5919 136.228 15.5919C135.555 15.5919 134.988 15.7746 134.526 16.1401C134.065 16.5055 133.715 17.0119 133.478 17.6595C133.241 18.307 133.122 19.0571 133.122 19.9097C133.122 20.7688 133.241 21.5285 133.478 22.1888C133.722 22.8427 134.071 23.3556 134.526 23.7275C134.988 24.0929 135.555 24.2756 136.228 24.2756ZM150.72 7.60062V27.2952H146.624V7.60062H150.72Z" fill="#7F7F7F"/>
</svg>
