<svg width="145" height="38" viewBox="0 0 145 38" fill="none" xmlns="http://www.w3.org/2000/svg">
<path d="M12.2297 11.7907C12.2653 11.7889 12.301 11.7944 12.3344 11.8068C12.3678 11.8192 12.3984 11.8383 12.4242 11.8629C12.45 11.8875 12.4706 11.9171 12.4846 11.9499C12.4987 11.9827 12.5059 12.018 12.5058 12.0536V27.2001V28.1599C12.5072 28.6056 12.4407 29.049 12.3086 29.4747C12.0862 30.1298 11.6982 30.7163 11.1821 31.1771C10.666 31.6379 10.0395 31.9573 9.36346 32.1043C8.96058 32.1805 8.55044 32.2114 8.1407 32.1963C7.72059 32.2026 7.30124 32.1584 6.89164 32.0649C6.68636 32.0336 6.48406 31.9852 6.28683 31.9202C6.10239 31.8329 5.92247 31.7364 5.74776 31.631L2.43447 29.6588L1.57985 29.1723C1.07003 28.8722 0.676298 28.409 0.46227 27.8575C0.354616 27.5938 0.29238 27.3137 0.278198 27.0292V10.5548C0.295731 10.2677 0.353261 9.98445 0.449122 9.71328C0.65723 9.17017 1.03543 8.70895 1.52726 8.39848L2.43447 7.89886L4.05167 6.93906L7.39126 5.0063L14.0704 1.15394L14.8988 0.667466L15.3195 0.430803L15.5825 0.365063C15.6989 0.295495 15.8223 0.238213 15.9506 0.194139C16.4809 -0.0217799 17.0672 -0.0587113 17.6204 0.0889549C17.878 0.15702 18.1256 0.258694 18.3567 0.391359L18.7774 0.64117L22.117 2.56078L28.7304 6.3474L32.07 8.25385C32.289 8.37268 32.4921 8.51844 32.6748 8.68774C32.8895 8.88248 33.0676 9.11402 33.2008 9.37143C33.3436 9.62438 33.4415 9.9002 33.49 10.1866C33.49 10.3312 33.49 10.4759 33.49 10.6205V26.7794C33.4926 27.0408 33.4616 27.3015 33.398 27.5551C33.2517 28.1253 32.9184 28.6299 32.4513 28.9882C32.3447 29.0734 32.2302 29.1482 32.1095 29.2117L31.9123 29.3301L31.4915 29.5667L30.6632 30.0532L28.9934 31.013L25.6538 32.9458L18.9878 36.7981L18.12 37.2978C17.734 37.49 17.3087 37.59 16.8775 37.59C16.4463 37.59 16.021 37.49 15.635 37.2978L15.1617 37.0216L14.3334 36.5483L10.5731 34.3658C10.5373 34.3467 10.5074 34.3183 10.4866 34.2835C10.4658 34.2488 10.4547 34.209 10.4547 34.1685C10.4547 34.128 10.4658 34.0883 10.4866 34.0535C10.5074 34.0188 10.5373 33.9904 10.5731 33.9713L12.6242 33.0773C12.6932 33.0415 12.7699 33.0229 12.8477 33.0229C12.9255 33.0229 13.0021 33.0415 13.0712 33.0773L15.5825 34.5498L16.4239 35.0363L16.7921 35.2467H16.8841C16.9483 35.2669 17.0171 35.2669 17.0813 35.2467L17.8834 34.7865L24.5625 30.921L31.1365 27.1475C31.179 27.1079 31.2107 27.0581 31.2286 27.0029C31.2286 26.9371 31.2286 27.0029 31.2286 26.8188V10.6073C31.2286 10.6073 31.2286 10.6073 31.2286 10.5285C31.2332 10.5068 31.2332 10.4844 31.2286 10.4627L31.0576 10.3444L27.534 8.42478L20.8417 4.57242L17.5284 2.65281L17.1076 2.403H16.9761C16.912 2.38281 16.8431 2.38281 16.7789 2.403L15.2669 3.28392L8.58773 7.08368L5.26129 9.01644L3.59149 9.97624L2.80261 10.4364C2.74982 10.4661 2.70824 10.5123 2.68428 10.5679V26.8977C2.68428 26.8977 2.68428 26.8977 2.68428 26.9766C2.70821 27.0247 2.74452 27.0655 2.78946 27.0949L3.60464 27.5682L6.95738 29.4879C7.31424 29.7224 7.7437 29.8204 8.16699 29.764C8.39409 29.791 8.62359 29.791 8.85069 29.764C9.01922 29.7211 9.17926 29.65 9.32401 29.5536C9.61679 29.366 9.83525 29.0825 9.94197 28.7516C10.0006 28.5736 10.0273 28.3866 10.0209 28.1994V27.2395L10.1129 12.0931C10.1129 12.0233 10.1406 11.9564 10.1899 11.9071C10.2392 11.8578 10.3061 11.8301 10.3759 11.8301L12.2297 11.7907Z" fill="#7F7F7F"/>
<path d="M28.0337 21.1787C27.7971 18.1547 23.9447 17.8128 20.2896 17.3921C17.0157 17.0239 17.0946 16.0773 17.0946 16.0773V15.4067C17.0946 13.9867 19.2903 13.8027 19.2903 13.8027H22.2749C22.9536 13.8449 23.5968 14.1207 24.0953 14.5832C24.5938 15.0458 24.9169 15.6666 25.0097 16.3402C25.0269 16.404 25.0645 16.4603 25.1167 16.5006C25.169 16.541 25.233 16.5632 25.299 16.5638H27.258C27.2989 16.5638 27.3393 16.5556 27.3769 16.5395C27.4144 16.5235 27.4484 16.5001 27.4766 16.4706C27.5049 16.4411 27.5269 16.4062 27.5413 16.368C27.5557 16.3297 27.5622 16.289 27.5604 16.2482C27.5604 15.1569 26.9819 11.4886 21.9988 11.4886H19.2772C18.4343 11.479 17.6009 11.6682 16.8448 12.0408C16.3126 12.2839 15.8346 12.6314 15.4393 13.0628C15.044 13.4942 14.7395 14.0007 14.5439 14.5521C14.3924 15.4221 14.3924 16.3117 14.5439 17.1817C14.8069 18.4965 17.305 19.7456 19.435 19.9165C21.5649 20.0874 25.2858 20.2452 25.3516 21.7966C25.4173 23.3481 24.8388 23.782 23.3268 24.1633C21.7224 24.4568 20.0744 24.412 18.4883 24.0318C17.8983 23.8881 17.3733 23.5512 16.9969 23.0747C16.6205 22.5982 16.4142 22.0095 16.4109 21.4022C16.4048 21.3498 16.3803 21.3012 16.3418 21.2651C16.3033 21.229 16.2533 21.2077 16.2006 21.205H14.11C14.0824 21.2032 14.0547 21.2069 14.0285 21.2159C14.0023 21.2248 13.9781 21.2389 13.9573 21.2572C13.9365 21.2755 13.9196 21.2977 13.9074 21.3226C13.8953 21.3475 13.8882 21.3746 13.8865 21.4022C13.8457 22.0161 13.9295 22.632 14.1329 23.2126C14.3362 23.7933 14.6549 24.3269 15.0698 24.7812C16.4385 25.9899 18.2007 26.6583 20.0266 26.6614C21.784 26.7528 23.5435 26.5257 25.2201 25.9909C26.1781 25.6448 26.9844 24.9737 27.4985 24.0944C28.0126 23.2151 28.202 22.1833 28.0337 21.1787Z" fill="#7F7F7F"/>
<path d="M55.6749 8.60038V28.2949H52.0783L43.51 15.8993H43.3658V28.2949H39.2018V8.60038H42.8561L51.3571 20.9864H51.5302V8.60038H55.6749ZM65.7121 28.5834C64.2183 28.5834 62.9265 28.2661 61.8366 27.6314C60.7532 26.9903 59.9165 26.0992 59.3267 24.958C58.7369 23.8104 58.442 22.4802 58.442 20.9672C58.442 19.4414 58.7369 18.1079 59.3267 16.9667C59.9165 15.8191 60.7532 14.928 61.8366 14.2933C62.9265 13.6522 64.2183 13.3317 65.7121 13.3317C67.2058 13.3317 68.4944 13.6522 69.5779 14.2933C70.6678 14.928 71.5076 15.8191 72.0974 16.9667C72.6872 18.1079 72.9821 19.4414 72.9821 20.9672C72.9821 22.4802 72.6872 23.8104 72.0974 24.958C71.5076 26.0992 70.6678 26.9903 69.5779 27.6314C68.4944 28.2661 67.2058 28.5834 65.7121 28.5834ZM65.7313 25.41C66.4109 25.41 66.9782 25.2176 67.4334 24.833C67.8886 24.4419 68.2316 23.9098 68.4624 23.2367C68.6996 22.5635 68.8182 21.7974 68.8182 20.9383C68.8182 20.0792 68.6996 19.3131 68.4624 18.64C68.2316 17.9668 67.8886 17.4347 67.4334 17.0436C66.9782 16.6526 66.4109 16.457 65.7313 16.457C65.0453 16.457 64.4683 16.6526 64.0003 17.0436C63.5387 17.4347 63.1893 17.9668 62.9521 18.64C62.7213 19.3131 62.6059 20.0792 62.6059 20.9383C62.6059 21.7974 62.7213 22.5635 62.9521 23.2367C63.1893 23.9098 63.5387 24.4419 64.0003 24.833C64.4683 25.2176 65.0453 25.41 65.7313 25.41ZM81.0888 28.5353C79.9669 28.5353 78.9508 28.2468 78.0404 27.6699C77.1364 27.0865 76.4184 26.2306 75.8863 25.1023C75.3606 23.9675 75.0978 22.5763 75.0978 20.9287C75.0978 19.2362 75.3702 17.829 75.9152 16.7071C76.4601 15.5787 77.1845 14.7357 78.0885 14.1779C78.9988 13.6138 79.9957 13.3317 81.0792 13.3317C81.9062 13.3317 82.5954 13.4727 83.1467 13.7548C83.7045 14.0305 84.1533 14.3767 84.493 14.7934C84.8392 15.2037 85.1021 15.6076 85.2816 16.0051H85.4066V8.60038H89.4936V28.2949H85.4547V25.9293H85.2816C85.0893 26.3396 84.8168 26.7467 84.4642 27.1506C84.118 27.548 83.666 27.8782 83.1083 28.1411C82.5569 28.4039 81.8838 28.5353 81.0888 28.5353ZM82.387 25.2753C83.0474 25.2753 83.6051 25.0958 84.0603 24.7368C84.5219 24.3714 84.8745 23.8617 85.1181 23.2078C85.3681 22.5539 85.4932 21.7878 85.4932 20.9095C85.4932 20.0312 85.3714 19.2683 85.1277 18.6207C84.8841 17.9732 84.5315 17.4732 84.0699 17.1206C83.6083 16.768 83.0474 16.5917 82.387 16.5917C81.7139 16.5917 81.1465 16.7744 80.6849 17.1398C80.2233 17.5052 79.8739 18.0117 79.6367 18.6592C79.3995 19.3067 79.2809 20.0568 79.2809 20.9095C79.2809 21.7685 79.3995 22.5282 79.6367 23.1886C79.8803 23.8425 80.2297 24.3554 80.6849 24.7272C81.1465 25.0926 81.7139 25.2753 82.387 25.2753ZM99.5933 28.5834C98.0739 28.5834 96.7661 28.2757 95.6698 27.6602C94.5799 27.0384 93.7401 26.1601 93.1503 25.0253C92.5605 23.8842 92.2656 22.5347 92.2656 20.9768C92.2656 19.4574 92.5605 18.1239 93.1503 16.9763C93.7401 15.8288 94.5703 14.9344 95.641 14.2933C96.718 13.6522 97.981 13.3317 99.4298 13.3317C100.404 13.3317 101.311 13.4888 102.151 13.8029C102.998 14.1106 103.735 14.5754 104.363 15.1973C104.998 15.8191 105.491 16.6013 105.844 17.5437C106.197 18.4797 106.373 19.576 106.373 20.8325V21.9577H93.9004V19.4189H102.517C102.517 18.8291 102.389 18.3066 102.132 17.8514C101.876 17.3962 101.52 17.0404 101.065 16.784C100.616 16.5211 100.093 16.3897 99.4972 16.3897C98.8753 16.3897 98.324 16.534 97.8431 16.8225C97.3687 17.1045 96.9969 17.486 96.7276 17.9668C96.4584 18.4412 96.3205 18.9701 96.3141 19.5535V21.9673C96.3141 22.6981 96.4487 23.3296 96.718 23.8617C96.9937 24.3938 97.3815 24.8041 97.8816 25.0926C98.3816 25.3811 98.9747 25.5254 99.6606 25.5254C100.116 25.5254 100.533 25.4613 100.911 25.333C101.289 25.2048 101.613 25.0125 101.882 24.7561C102.151 24.4996 102.356 24.1855 102.498 23.8136L106.286 24.0637C106.094 24.974 105.7 25.769 105.104 26.4486C104.514 27.1217 103.751 27.6474 102.815 28.0257C101.885 28.3975 100.811 28.5834 99.5933 28.5834ZM123.276 8.60038H127.392V22.3327C127.392 23.6021 127.107 24.7048 126.536 25.6408C125.972 26.5768 125.187 27.298 124.18 27.8045C123.174 28.3109 122.004 28.5642 120.67 28.5642C119.484 28.5642 118.407 28.3558 117.439 27.9391C116.477 27.516 115.715 26.8749 115.15 26.0158C114.586 25.1503 114.307 24.0637 114.314 22.7558H118.458C118.471 23.2751 118.577 23.7207 118.776 24.0925C118.981 24.4579 119.26 24.74 119.612 24.9388C119.971 25.1311 120.395 25.2273 120.882 25.2273C121.395 25.2273 121.827 25.1183 122.18 24.9003C122.539 24.6759 122.812 24.349 122.997 23.9194C123.183 23.4899 123.276 22.961 123.276 22.3327V8.60038ZM143.048 17.736L139.297 17.9668C139.233 17.6463 139.095 17.3578 138.884 17.1013C138.672 16.8385 138.393 16.6301 138.047 16.4763C137.707 16.316 137.3 16.2359 136.826 16.2359C136.191 16.2359 135.656 16.3705 135.22 16.6398C134.784 16.9026 134.566 17.2552 134.566 17.6976C134.566 18.0502 134.707 18.3483 134.989 18.5919C135.271 18.8355 135.755 19.031 136.441 19.1785L139.115 19.717C140.551 20.0119 141.621 20.4863 142.327 21.1403C143.032 21.7942 143.384 22.6533 143.384 23.7175C143.384 24.6855 143.099 25.535 142.528 26.2658C141.964 26.9967 141.189 27.5673 140.201 27.9776C139.22 28.3815 138.089 28.5834 136.807 28.5834C134.851 28.5834 133.293 28.1763 132.133 27.3621C130.979 26.5415 130.303 25.426 130.104 24.0156L134.133 23.804C134.255 24.4002 134.55 24.8554 135.018 25.1696C135.486 25.4773 136.085 25.6312 136.816 25.6312C137.534 25.6312 138.111 25.4933 138.547 25.2176C138.99 24.9356 139.214 24.5733 139.22 24.131C139.214 23.7592 139.057 23.4546 138.749 23.2174C138.441 22.9738 137.967 22.7879 137.326 22.6597L134.768 22.15C133.326 21.8615 132.252 21.3614 131.546 20.6498C130.848 19.9382 130.498 19.031 130.498 17.9284C130.498 16.9795 130.755 16.1621 131.268 15.4762C131.787 14.7902 132.515 14.2613 133.451 13.8894C134.393 13.5176 135.496 13.3317 136.759 13.3317C138.624 13.3317 140.092 13.726 141.163 14.5145C142.24 15.3031 142.868 16.3769 143.048 17.736Z" fill="#7F7F7F"/>
</svg>
