<svg id="Layer_4" data-name="Layer 4" xmlns="http://www.w3.org/2000/svg" viewBox="0 0 32 32"><defs><style>.cls-1{fill:#539e43;}</style></defs><path class="cls-1" d="M12.45,10.69a.2.2,0,0,1,.21.2l0,11.52v.73a3.34,3.34,0,0,1-.15,1,3.05,3.05,0,0,1-2.24,2,4.18,4.18,0,0,1-.93.07,4,4,0,0,1-.95-.1A2.84,2.84,0,0,1,7.93,26a4.61,4.61,0,0,1-.41-.22L5,24.28l-.65-.37a2,2,0,0,1-.85-1,1.92,1.92,0,0,1-.14-.63V9.75a2.35,2.35,0,0,1,.13-.64,2.05,2.05,0,0,1,.82-1L5,7.73,6.23,7,8.77,5.53,13.85,2.6l.63-.37.32-.18L15,2a1.49,1.49,0,0,1,.28-.13,2,2,0,0,1,1.27-.08,2.31,2.31,0,0,1,.56.23l.32.19,2.54,1.46L25,6.55,27.54,8a2.27,2.27,0,0,1,.46.33,1.85,1.85,0,0,1,.4.52,1.91,1.91,0,0,1,.22.62c0,.11,0,.22,0,.33V22.09a2.33,2.33,0,0,1-.07.59,2,2,0,0,1-.72,1.09,1.64,1.64,0,0,1-.26.17l-.15.09-.32.18-.63.37-1.27.73-2.54,1.47-5.07,2.93-.66.38a2.12,2.12,0,0,1-1.89,0l-.36-.21-.63-.36-2.86-1.66a.17.17,0,0,1,0-.3l1.56-.68a.37.37,0,0,1,.34,0L15,28l.64.37.28.16.07,0a.25.25,0,0,0,.15,0l.61-.35,5.08-2.94,5-2.87a.26.26,0,0,0,.07-.11c0-.05,0,0,0-.14V9.79s0,0,0-.06a.12.12,0,0,0,0-.05l-.13-.09L24.09,8.13,19,5.2,16.48,3.74l-.32-.19-.1,0a.25.25,0,0,0-.15,0l-1.15.67L9.68,7.11,7.15,8.58l-1.27.73-.6.35a.21.21,0,0,0-.09.1V22.18s0,0,0,.06a.23.23,0,0,0,.08.09l.62.36,2.55,1.46a1.35,1.35,0,0,0,.92.21,2.2,2.2,0,0,0,.52,0,1.17,1.17,0,0,0,.36-.16,1.14,1.14,0,0,0,.47-.61,1.21,1.21,0,0,0,.06-.42v-.73l.07-11.52a.2.2,0,0,1,.2-.2Z"/><path class="cls-1" d="M24.47,17.83c-.18-2.3-3.11-2.56-5.89-2.88-2.49-.28-2.43-1-2.43-1v-.51c0-1.08,1.67-1.22,1.67-1.22h2.27a2.24,2.24,0,0,1,2.08,1.93.23.23,0,0,0,.22.17h1.49a.23.23,0,0,0,.23-.24c0-.83-.44-3.62-4.23-3.62H17.81a4.08,4.08,0,0,0-1.85.42,3.32,3.32,0,0,0-1.75,1.91,5.83,5.83,0,0,0,0,2c.2,1,2.1,1.95,3.72,2.08s4.45.25,4.5,1.43-.39,1.51-1.54,1.8A8.91,8.91,0,0,1,17.21,20a2.07,2.07,0,0,1-1.58-2,.17.17,0,0,0-.16-.15H13.88a.16.16,0,0,0-.17.15,3.47,3.47,0,0,0,.9,2.57A5.71,5.71,0,0,0,18.38,22a11.1,11.1,0,0,0,3.95-.51A3.31,3.31,0,0,0,24.47,17.83Z"/></svg>