<svg id="Layer_4" data-name="Layer 4" xmlns="http://www.w3.org/2000/svg" viewBox="0 0 32 32"><defs><style>.cls-1{fill:#ff6c37;}.cls-2{fill:#fff;}</style></defs><circle class="cls-1" cx="16" cy="16" r="14.19"/><polygon class="cls-2" points="15.27 17.31 13.96 17.56 14.74 16.78 15.27 17.31"/><polygon class="cls-2" points="8.78 22.75 10.06 24.01 7.62 23.92 8.78 22.75"/><path class="cls-2" d="M16.63,18.67l-.09.07a31.42,31.42,0,0,1-3.77,2.57c-1.23.72-2.35,1.31-2.35,1.31L10.71,24h-.05l-1.6-1.57,4.4-4.41,2.15-.41Z"/><path class="cls-2" d="M16,17.44l5.6-5a.36.36,0,0,1,0,.1c-.34,1.57-3,4.36-4.62,5.82Z"/><path class="cls-2" d="M21.61,11.9l-5.92,5.26L15,16.5l5.58-5.59A1,1,0,0,1,21.61,11.9Z"/><polygon class="cls-2" points="13.45 15.49 14.5 16.55 12 16.9 13.45 15.49"/><path class="cls-2" d="M20.44,10.7l-5.65,5.56L13.73,15.2l2.56-2.5a16,16,0,0,1,1.8-1.47C19.08,10.5,20,10.07,20.44,10.7Z"/><path class="cls-2" d="M22,9.62l1.49,1.57a2,2,0,0,1-.82.17A2.12,2.12,0,1,1,24,7.58Z"/><path class="cls-2" d="M24.31,7.86,22.59,9.62,23.89,11a2.09,2.09,0,0,0,.94-1.75A2.13,2.13,0,0,0,24.31,7.86Zm-.07,2a.21.21,0,0,1-.12,0A.21.21,0,0,1,24,9.86a.21.21,0,0,1,0-.28.3.3,0,0,0,.13-.18.38.38,0,0,0-.08-.19.2.2,0,0,1,0-.28.21.21,0,0,1,.29,0,.75.75,0,0,1,.2.5A.67.67,0,0,1,24.24,9.9Z"/></svg>