<svg width="156" height="34" viewBox="0 0 156 34" fill="none" xmlns="http://www.w3.org/2000/svg">
<path d="M19.5183 20.2168C21.4295 20.2168 22.9788 18.6675 22.9788 16.7564C22.9788 14.8452 21.4295 13.2959 19.5183 13.2959C17.6072 13.2959 16.0579 14.8452 16.0579 16.7564C16.0579 18.6675 17.6072 20.2168 19.5183 20.2168Z" fill="#7F7F7F"/>
<path d="M38.0701 16.6739C37.974 14.2296 34.8568 12.0188 30.2291 10.6318C30.9395 8.16951 31.0244 5.56889 30.4763 3.06546C30.356 2.54549 30.1291 2.05613 29.81 1.62831C29.4909 1.20049 29.0866 0.843524 28.6225 0.57996C26.5077 -0.504871 23.0061 1.11551 19.4907 4.43867C16.0027 1.18417 12.5148 -0.422479 10.3451 0.703549C9.8899 0.96311 9.49211 1.31236 9.17582 1.73014C8.85953 2.14793 8.63132 2.62556 8.50501 3.13412C7.9749 5.61834 8.07402 8.19566 8.79339 10.6318C6.36919 11.2346 4.12369 12.4068 2.2432 14.0511C1.8353 14.4026 1.50321 14.8335 1.26713 15.3174C1.03105 15.8014 0.895934 16.3283 0.869995 16.8662C0.869995 19.3517 4.08329 21.6312 8.77965 23.0593C8.10369 25.4466 8.00951 27.9611 8.50501 30.3922C8.61646 30.9175 8.83335 31.4147 9.14256 31.8538C9.45177 32.2928 9.84686 32.6645 10.3039 32.9464C10.8065 33.2142 11.3685 33.3512 11.938 33.3446C14.039 33.3446 16.7854 31.7929 19.5181 29.225C22.2645 31.7654 25.0109 33.3446 27.1119 33.3446C27.6758 33.3543 28.2329 33.2221 28.7323 32.9601C29.1814 32.6819 29.5698 32.316 29.8742 31.8842C30.1785 31.4524 30.3927 30.9636 30.5038 30.4472C30.9991 28.0153 30.9002 25.4997 30.2154 23.1143C32.6604 22.484 34.9109 21.2573 36.7656 19.5439C37.1663 19.179 37.4886 18.7364 37.7128 18.243C37.9371 17.7496 38.0587 17.2158 38.0701 16.6739ZM27.9496 1.98063C28.2372 2.15064 28.4876 2.3769 28.6858 2.64587C28.884 2.91484 29.0259 3.22101 29.1031 3.54608C29.5342 5.76766 29.4306 8.05993 28.801 10.2336C27.2107 9.8476 25.5956 9.5723 23.9673 9.40967C22.97 8.01403 21.8732 6.69231 20.6853 5.45484C23.212 3.06546 25.6014 1.80211 27.0982 1.80211C27.3916 1.79859 27.6823 1.85953 27.9496 1.98063ZM24.8324 19.8323C24.2419 20.8897 23.6103 21.8784 22.9786 22.7984C21.8663 22.8945 20.6991 22.9495 19.4907 22.9495C18.2822 22.9495 17.1699 22.9495 16.0851 22.7984C15.4123 21.8422 14.789 20.8522 14.2175 19.8323C13.6408 18.8024 13.119 17.7725 12.6384 16.7288C13.0915 15.7676 13.5721 14.7926 14.1489 13.7902C14.7158 12.7705 15.3346 11.7805 16.0027 10.8241C17.115 10.7279 18.2685 10.673 19.4907 10.673C20.7128 10.673 21.9212 10.673 23.0473 10.8241C23.6789 11.7441 24.3106 12.7328 24.9011 13.7902C25.4916 14.8476 25.9722 15.8225 26.3567 16.7975C25.9447 17.7999 25.4366 18.8299 24.8324 19.8872V19.8323ZM27.2355 18.6101C27.6741 19.6922 28.0546 20.7969 28.3753 21.9196C27.3179 22.1805 26.1919 22.4002 24.9835 22.5787C25.3954 21.9333 25.8074 21.2742 26.1919 20.6013C26.5764 19.9284 26.906 19.3242 27.2355 18.6651V18.6101ZM19.4907 27.0416C18.7016 26.2377 17.9588 25.3895 17.2661 24.5012C17.9801 24.5012 18.7079 24.5012 19.4495 24.5012C20.191 24.5012 20.9737 24.5012 21.7152 24.5012C21.0255 25.392 20.2826 26.2404 19.4907 27.0416ZM13.9978 22.6199C12.8031 22.4414 11.6908 22.2217 10.6472 21.9608C10.95 20.8449 11.3215 19.7488 11.7595 18.6788C12.0891 19.3379 12.4186 20.052 12.7894 20.6562C13.1602 21.2604 13.6545 21.9745 14.0665 22.6199H13.9978ZM11.7595 14.9162C11.3201 13.8177 10.963 12.7603 10.6609 11.7167C11.7619 11.4536 12.8757 11.2474 13.9978 11.0987C13.5859 11.7441 13.1739 12.3895 12.7894 13.0761C12.4049 13.7627 12.1303 14.2983 11.8282 14.9162H11.7595ZM19.4907 6.52594C20.3204 7.39622 21.0999 8.31318 21.8251 9.27235C21.0424 9.27235 20.2596 9.18995 19.4632 9.18995C18.6667 9.18995 17.9252 9.18995 17.1699 9.25861C17.8947 8.30733 18.6693 7.39516 19.4907 6.52594ZM26.2331 13.0761C25.8486 12.3895 25.4366 11.7029 25.0247 11.0987C26.1919 11.2635 27.2905 11.4695 28.3066 11.7167C28.0045 12.7328 27.6475 13.8039 27.1943 14.9162C26.9197 14.2983 26.6039 13.6803 26.2605 13.0761H26.2331ZM10.0155 3.57355C10.0802 3.25605 10.2085 2.95491 10.3925 2.68825C10.5766 2.42159 10.8127 2.1949 11.0866 2.02182C11.3566 1.89399 11.6533 1.83278 11.9518 1.84331C13.4486 1.84331 15.8379 3.07919 18.4196 5.46857C17.2409 6.70075 16.1489 8.013 15.1513 9.39593C13.5235 9.562 11.9086 9.83726 10.3176 10.2199C9.67366 8.06268 9.56991 5.78025 10.0155 3.57355ZM2.46291 16.7975C2.53812 16.1386 2.85639 15.5314 3.3555 15.0947C5.05005 13.6478 7.0572 12.6136 9.21908 12.0737C9.69784 13.6825 10.2757 15.2601 10.9493 16.7975C10.2631 18.3345 9.68497 19.9176 9.21908 21.5351C5.05827 20.2443 2.47664 18.3355 2.46291 16.7975ZM11.1004 31.5869C10.8283 31.3988 10.5961 31.1588 10.417 30.8808C10.2379 30.6027 10.1155 30.292 10.0567 29.9665C9.63679 27.8114 9.72139 25.5883 10.3039 23.4713C11.9251 23.8709 13.5724 24.1554 15.2337 24.3227C16.2069 25.6662 17.2763 26.9375 18.4333 28.1264C15.2886 31.0376 12.3912 32.301 11.1004 31.5869ZM29.1031 29.9803C29.045 30.2969 28.9239 30.5986 28.747 30.8675C28.5701 31.1364 28.3409 31.3671 28.0732 31.5457C26.7686 32.2735 23.8574 31.0239 20.7128 28.1402C21.8482 26.9432 22.9033 25.6725 23.8712 24.3364C25.5366 24.1592 27.1881 23.8702 28.8147 23.4713C29.4131 25.5894 29.5118 27.8175 29.1031 29.9803ZM35.6807 18.514C34.0184 19.968 32.0384 21.0121 29.8995 21.5625C29.4141 19.9334 28.813 18.341 28.1006 16.7975C28.7798 15.2827 29.3534 13.7226 29.8172 12.1286C34.0054 13.392 36.4635 15.2595 36.5184 16.7426C36.497 17.0814 36.4083 17.4126 36.2574 17.7168C36.1064 18.021 35.8964 18.292 35.6395 18.514H35.6807Z" fill="#7F7F7F"/>
<path d="M43.7819 26.2952V6.60062H51.552C53.0393 6.60062 54.3087 6.86668 55.3601 7.39879C56.4179 7.92449 57.2225 8.67137 57.7738 9.63943C58.3316 10.6011 58.6105 11.7326 58.6105 13.034C58.6105 14.3419 58.3284 15.467 57.7642 16.4094C57.2001 17.3454 56.3827 18.0635 55.312 18.5635C54.2478 19.0636 52.9592 19.3136 51.4462 19.3136H46.2437V15.9671H50.773C51.568 15.9671 52.2283 15.8581 52.754 15.6401C53.2797 15.4221 53.6708 15.0952 53.9272 14.6592C54.1901 14.2233 54.3215 13.6816 54.3215 13.034C54.3215 12.3801 54.1901 11.8288 53.9272 11.38C53.6708 10.9312 53.2765 10.5915 52.7444 10.3607C52.2187 10.1235 51.5552 10.0049 50.7538 10.0049H47.9458V26.2952H43.7819ZM54.4177 17.3326L59.3125 26.2952H54.7158L49.9268 17.3326H54.4177ZM67.9697 26.5837C66.4503 26.5837 65.1425 26.2759 64.0462 25.6605C62.9563 25.0386 62.1165 24.1603 61.5267 23.0256C60.9369 21.8844 60.642 20.5349 60.642 18.977C60.642 17.4576 60.9369 16.1241 61.5267 14.9766C62.1165 13.829 62.9467 12.9347 64.0173 12.2936C65.0944 11.6525 66.3573 11.3319 67.8062 11.3319C68.7807 11.3319 69.6879 11.489 70.5277 11.8031C71.3739 12.1109 72.1112 12.5757 72.7395 13.1975C73.3742 13.8194 73.8678 14.6015 74.2204 15.5439C74.573 16.4799 74.7493 17.5762 74.7493 18.8328V19.9579H62.2768V17.4192H70.8931C70.8931 16.8293 70.7649 16.3069 70.5085 15.8517C70.252 15.3965 69.8962 15.0407 69.441 14.7842C68.9923 14.5214 68.4698 14.39 67.8735 14.39C67.2517 14.39 66.7003 14.5342 66.2195 14.8227C65.7451 15.1048 65.3733 15.4862 65.104 15.9671C64.8347 16.4415 64.6969 16.9704 64.6905 17.5538V19.9675C64.6905 20.6984 64.8251 21.3299 65.0944 21.862C65.3701 22.3941 65.7579 22.8044 66.258 23.0929C66.758 23.3814 67.351 23.5256 68.037 23.5256C68.4922 23.5256 68.9089 23.4615 69.2872 23.3333C69.6654 23.2051 69.9892 23.0127 70.2584 22.7563C70.5277 22.4999 70.7328 22.1857 70.8739 21.8139L74.6628 22.0639C74.4704 22.9743 74.0762 23.7692 73.4799 24.4488C72.8901 25.122 72.1272 25.6477 71.1912 26.0259C70.2616 26.3977 69.1878 26.5837 67.9697 26.5837ZM81.6347 26.574C80.6923 26.574 79.8525 26.4106 79.1152 26.0836C78.3779 25.7502 77.7945 25.2598 77.365 24.6123C76.9419 23.9584 76.7303 23.1442 76.7303 22.1697C76.7303 21.3491 76.881 20.6599 77.1823 20.1022C77.4836 19.5444 77.8939 19.0956 78.4132 18.7558C78.9325 18.4161 79.5223 18.1596 80.1826 17.9865C80.8494 17.8134 81.5482 17.6916 82.279 17.6211C83.1381 17.5313 83.8305 17.448 84.3562 17.3711C84.8819 17.2877 85.2633 17.1659 85.5005 17.0056C85.7378 16.8454 85.8564 16.6082 85.8564 16.294V16.2363C85.8564 15.6273 85.664 15.1561 85.2794 14.8227C84.9011 14.4893 84.3626 14.3227 83.6638 14.3227C82.9265 14.3227 82.3399 14.4861 81.904 14.8131C81.468 15.1336 81.1795 15.5375 81.0385 16.0248L77.2496 15.717C77.4419 14.8195 77.8202 14.0438 78.3844 13.3899C78.9485 12.7295 79.6762 12.2231 80.5673 11.8704C81.4648 11.5114 82.5034 11.3319 83.683 11.3319C84.5036 11.3319 85.289 11.4281 86.0391 11.6204C86.7956 11.8128 87.4655 12.1109 88.0489 12.5148C88.6387 12.9186 89.1035 13.4379 89.4433 14.0726C89.7831 14.7009 89.953 15.4542 89.953 16.3325V26.2952H86.0679V24.2469H85.9525C85.7153 24.7084 85.398 25.1155 85.0005 25.4681C84.603 25.8143 84.1254 26.0868 83.5676 26.2855C83.0099 26.4779 82.3656 26.574 81.6347 26.574ZM82.8079 23.7468C83.4106 23.7468 83.9427 23.6282 84.4043 23.391C84.8659 23.1474 85.2281 22.8204 85.4909 22.4101C85.7538 21.9998 85.8852 21.535 85.8852 21.0157V19.4482C85.757 19.5316 85.5807 19.6085 85.3563 19.679C85.1383 19.7431 84.8915 19.804 84.6158 19.8617C84.3402 19.913 84.0645 19.9611 83.7888 20.006C83.5131 20.0445 83.2631 20.0797 83.0387 20.1118C82.5579 20.1823 82.138 20.2945 81.779 20.4483C81.42 20.6022 81.1411 20.8106 80.9423 21.0734C80.7436 21.3299 80.6442 21.6504 80.6442 22.0351C80.6442 22.5928 80.8462 23.0192 81.2501 23.3141C81.6604 23.6026 82.1797 23.7468 82.8079 23.7468ZM99.8051 26.5837C98.2921 26.5837 96.9906 26.2631 95.9008 25.622C94.8173 24.9745 93.9839 24.077 93.4005 22.9294C92.8235 21.7818 92.535 20.4612 92.535 18.9674C92.535 17.4544 92.8267 16.1273 93.4101 14.9862C93.9999 13.8386 94.8365 12.9443 95.92 12.3032C97.0035 11.6557 98.2921 11.3319 99.7858 11.3319C101.074 11.3319 102.203 11.5659 103.171 12.0339C104.139 12.5019 104.905 13.1591 105.469 14.0053C106.033 14.8516 106.344 15.8453 106.402 16.9864H102.536C102.427 16.2492 102.139 15.6561 101.671 15.2074C101.209 14.7522 100.603 14.5246 99.8531 14.5246C99.2184 14.5246 98.6639 14.6977 98.1895 15.0439C97.7215 15.3837 97.3561 15.8805 97.0932 16.5344C96.8304 17.1884 96.6989 17.9801 96.6989 18.9097C96.6989 19.8521 96.8271 20.6535 97.0836 21.3138C97.3464 21.9742 97.7151 22.4774 98.1895 22.8236C98.6639 23.1698 99.2184 23.3429 99.8531 23.3429C100.321 23.3429 100.741 23.2467 101.113 23.0544C101.491 22.8621 101.802 22.5832 102.046 22.2178C102.296 21.8459 102.459 21.4004 102.536 20.8811H106.402C106.338 22.0094 106.03 23.0031 105.479 23.8622C104.934 24.7149 104.181 25.3816 103.219 25.8624C102.257 26.3432 101.119 26.5837 99.8051 26.5837ZM116.882 11.5243V14.6015H107.986V11.5243H116.882ZM110.006 7.98539H114.102V21.7562C114.102 22.1344 114.16 22.4293 114.275 22.6409C114.391 22.8461 114.551 22.9903 114.756 23.0736C114.968 23.157 115.211 23.1987 115.487 23.1987C115.679 23.1987 115.872 23.1826 116.064 23.1506C116.256 23.1121 116.404 23.0833 116.506 23.064L117.151 26.1125C116.946 26.1766 116.657 26.2503 116.285 26.3336C115.913 26.4234 115.461 26.4779 114.929 26.4971C113.942 26.5356 113.077 26.4042 112.333 26.1028C111.596 25.8015 111.022 25.3335 110.612 24.6988C110.201 24.0641 109.999 23.2628 110.006 22.2947V7.98539ZM133.78 6.60062H137.896V20.3329C137.896 21.6023 137.611 22.705 137.04 23.641C136.476 24.577 135.691 25.2983 134.684 25.8047C133.677 26.3112 132.507 26.5644 131.174 26.5644C129.988 26.5644 128.911 26.3561 127.943 25.9394C126.981 25.5162 126.218 24.8751 125.654 24.0161C125.09 23.1506 124.811 22.0639 124.818 20.7561H128.962C128.975 21.2754 129.081 21.7209 129.28 22.0928C129.485 22.4582 129.764 22.7403 130.116 22.939C130.475 23.1313 130.898 23.2275 131.386 23.2275C131.898 23.2275 132.331 23.1185 132.684 22.9005C133.043 22.6762 133.315 22.3492 133.501 21.9197C133.687 21.4901 133.78 20.9612 133.78 20.3329V6.60062ZM153.552 15.7363L149.801 15.9671C149.737 15.6465 149.599 15.358 149.388 15.1016C149.176 14.8387 148.897 14.6304 148.551 14.4765C148.211 14.3162 147.804 14.2361 147.33 14.2361C146.695 14.2361 146.16 14.3707 145.724 14.64C145.288 14.9028 145.07 15.2554 145.07 15.6978C145.07 16.0504 145.211 16.3485 145.493 16.5921C145.775 16.8358 146.259 17.0313 146.945 17.1787L149.618 17.7173C151.054 18.0122 152.125 18.4866 152.83 19.1405C153.536 19.7944 153.888 20.6535 153.888 21.7177C153.888 22.6858 153.603 23.5352 153.032 24.2661C152.468 24.9969 151.692 25.5675 150.705 25.9778C149.724 26.3817 148.593 26.5837 147.31 26.5837C145.355 26.5837 143.797 26.1766 142.637 25.3624C141.483 24.5418 140.807 23.4263 140.608 22.0158L144.637 21.8043C144.759 22.4005 145.054 22.8557 145.522 23.1698C145.99 23.4775 146.589 23.6314 147.32 23.6314C148.038 23.6314 148.615 23.4936 149.051 23.2179C149.493 22.9358 149.718 22.5736 149.724 22.1312C149.718 21.7594 149.561 21.4549 149.253 21.2177C148.945 20.974 148.471 20.7881 147.83 20.6599L145.272 20.1502C143.829 19.8617 142.755 19.3617 142.05 18.6501C141.351 17.9384 141.002 17.0313 141.002 15.9286C141.002 14.9798 141.258 14.1624 141.771 13.4764C142.291 12.7904 143.018 12.2615 143.954 11.8897C144.897 11.5178 145.999 11.3319 147.262 11.3319C149.128 11.3319 150.596 11.7262 151.667 12.5148C152.744 13.3033 153.372 14.3771 153.552 15.7363Z" fill="#7F7F7F"/>
</svg>
