<svg id="Layer_4" data-name="Layer 4" xmlns="http://www.w3.org/2000/svg" viewBox="0 0 32 32"><defs><style>.cls-1{fill:#05a5d1;}</style></defs><circle class="cls-1" cx="16.02" cy="15.97" r="2.52"/><path class="cls-1" d="M29.53,15.91c-.07-1.78-2.34-3.39-5.71-4.4A11.22,11.22,0,0,0,24,6a2.81,2.81,0,0,0-1.35-1.81C21.11,3.4,18.56,4.58,16,7c-2.54-2.37-5.08-3.54-6.66-2.72A2.82,2.82,0,0,0,8,6.05a11.1,11.1,0,0,0,.21,5.46A11.44,11.44,0,0,0,3.44,14a2.89,2.89,0,0,0-1,2.05c0,1.81,2.34,3.47,5.76,4.51A11.31,11.31,0,0,0,8,25.9a2.89,2.89,0,0,0,1.31,1.86,2.47,2.47,0,0,0,1.19.29c1.53,0,3.53-1.13,5.52-3,2,1.85,4,3,5.53,3a2.45,2.45,0,0,0,1.18-.28,2.86,2.86,0,0,0,1.29-1.83,11.23,11.23,0,0,0-.21-5.34A11.12,11.12,0,0,0,28.58,18,2.91,2.91,0,0,0,29.53,15.91ZM22.16,5.21A1.81,1.81,0,0,1,23,6.35a10.39,10.39,0,0,1-.22,4.87,25.79,25.79,0,0,0-3.52-.6,25.92,25.92,0,0,0-2.39-2.88C18.71,6,20.45,5.08,21.54,5.08A1.46,1.46,0,0,1,22.16,5.21Zm-2.27,13c-.43.77-.89,1.49-1.35,2.16-.81.07-1.66.11-2.54.11s-1.69,0-2.48-.11a24.93,24.93,0,0,1-1.36-2.16c-.42-.75-.8-1.5-1.15-2.26.33-.7.68-1.41,1.1-2.14a24.89,24.89,0,0,1,1.35-2.16c.81-.07,1.65-.11,2.54-.11s1.77,0,2.59.11c.46.67.92,1.39,1.35,2.16S20.72,15.29,21,16C20.7,16.73,20.33,17.48,19.89,18.25Zm1.75-.89a23.88,23.88,0,0,1,.83,2.41c-.77.19-1.59.35-2.47.48.3-.47.6-.95.88-1.44S21.4,17.84,21.64,17.36ZM16,23.46a21.64,21.64,0,0,1-1.62-1.85c.52,0,1.05,0,1.59,0s1.11,0,1.65,0A20.38,20.38,0,0,1,16,23.46Zm-4-3.22c-.87-.13-1.68-.29-2.44-.48a20.44,20.44,0,0,1,.81-2.39c.24.48.48,1,.75,1.44S11.75,19.77,12.05,20.24Zm-1.63-5.61c-.32-.8-.58-1.57-.8-2.33A24.06,24.06,0,0,1,12,11.85c-.3.47-.6.94-.88,1.44S10.64,14.18,10.42,14.63ZM16,8.52a23,23,0,0,1,1.7,2c-.57,0-1.14-.06-1.72-.06s-1.12,0-1.67.05A24.63,24.63,0,0,1,16,8.52Zm4.91,4.77c-.28-.5-.58-1-.88-1.44.85.12,1.65.27,2.39.45-.22.74-.48,1.52-.81,2.33C21.41,14.18,21.18,13.73,20.93,13.29ZM9.1,6.37a1.75,1.75,0,0,1,.78-1.13,1.36,1.36,0,0,1,.63-.13c1.09,0,2.83.9,4.71,2.64a26.92,26.92,0,0,0-2.38,2.86,26.6,26.6,0,0,0-3.52.6A10,10,0,0,1,9.1,6.37ZM3.6,16a1.94,1.94,0,0,1,.65-1.24,10.49,10.49,0,0,1,4.27-2.2A29.63,29.63,0,0,0,9.78,16a26.36,26.36,0,0,0-1.26,3.45C5.49,18.51,3.61,17.12,3.6,16ZM9.89,26.77a1.83,1.83,0,0,1-.76-1.18,10.36,10.36,0,0,1,.18-4.73,25.79,25.79,0,0,0,3.59.62,25,25,0,0,0,2.33,2.77C12.94,26.37,10.83,27.29,9.89,26.77ZM23,25.6a1.75,1.75,0,0,1-.75,1.14c-.95.53-3.07-.38-5.36-2.48a27.27,27.27,0,0,0,2.3-2.77,27.2,27.2,0,0,0,3.6-.63A10.36,10.36,0,0,1,23,25.6Zm4.79-8.35a10.29,10.29,0,0,1-4.21,2.22A26,26,0,0,0,22.27,16a26.2,26.2,0,0,0,1.25-3.4c3.05.92,4.84,2.28,4.88,3.36A1.86,1.86,0,0,1,27.76,17.25Z"/></svg>