<svg id="Layer_4" data-name="Layer 4" xmlns="http://www.w3.org/2000/svg" viewBox="0 0 32 32"><defs><style>.cls-1{fill:#42a6b3;}</style></defs><path class="cls-1" d="M9,13.05s.62-3.64,3.77-4.92a8.22,8.22,0,0,1,8.67,1.44c1.47,1.39,2.92,3.59,5.66,2.95a5,5,0,0,0,3-2.09h0s-.62,3.64-3.78,4.92a8.22,8.22,0,0,1-8.66-1.43c-1.48-1.4-2.93-3.6-5.66-3a5,5,0,0,0-3,2.09Z"/><path class="cls-1" d="M2,21.54s.62-3.64,3.77-4.92a8.24,8.24,0,0,1,8.67,1.43c1.47,1.4,2.92,3.6,5.66,3a5,5,0,0,0,3-2.09h0s-.63,3.64-3.78,4.92a8.2,8.2,0,0,1-8.66-1.44C9.11,21,7.66,18.81,4.93,19.45a5,5,0,0,0-3,2.09Z"/></svg>