<svg width="185" height="34" viewBox="0 0 185 34" fill="none" xmlns="http://www.w3.org/2000/svg">
<path d="M14.1904 11.24C14.1904 11.24 15.3559 4.3975 21.2772 1.99133C23.9715 0.853957 26.9332 0.504553 29.8181 0.983729C32.7031 1.46291 35.3929 2.75098 37.5748 4.69827C40.3381 7.31122 43.0638 11.4468 48.2144 10.2437C50.5227 9.69305 52.5373 8.28952 53.8537 6.31492C53.8537 6.31492 52.6882 13.1575 46.7481 15.5636C44.058 16.6996 41.101 17.05 38.2199 16.5743C35.3388 16.0985 32.6514 14.816 30.4693 12.8755C27.6872 10.2437 24.9615 6.10814 19.8298 7.23603C17.5214 7.78672 15.5068 9.19025 14.1904 11.1649V11.24Z" fill="#7F7F7F"/>
<path d="M1.03197 27.1988C1.03197 27.1988 2.19743 20.3563 8.11872 17.9501C10.8121 16.8148 13.7718 16.4647 16.6558 16.9404C19.5397 17.4161 22.2302 18.6981 24.4164 20.6382C27.1796 23.27 29.9053 27.4056 35.0559 26.2777C37.3642 25.727 39.3788 24.3235 40.6952 22.3489C40.6952 22.3489 39.5109 29.1914 33.5897 31.5976C30.8987 32.7356 27.9397 33.0854 25.0575 32.6061C22.1753 32.1269 19.4887 30.8383 17.3108 28.8906C14.3972 26.1837 11.6715 22.0669 6.53971 23.27C4.23136 23.8207 2.21677 25.2242 0.900391 27.1988H1.03197Z" fill="#7F7F7F"/>
<path d="M58.8153 10.0335V6.60038H74.9903V10.0335H68.9607V26.2949H64.8449V10.0335H58.8153ZM79.7793 26.5738C78.8369 26.5738 77.997 26.4103 77.2598 26.0834C76.5225 25.75 75.9391 25.2595 75.5096 24.612C75.0864 23.9581 74.8749 23.1439 74.8749 22.1695C74.8749 21.3488 75.0255 20.6597 75.3268 20.1019C75.6282 19.5442 76.0385 19.0954 76.5577 18.7556C77.077 18.4158 77.6668 18.1594 78.3272 17.9863C78.9939 17.8132 79.6927 17.6914 80.4236 17.6209C81.2826 17.5311 81.975 17.4478 82.5007 17.3708C83.0264 17.2875 83.4079 17.1657 83.6451 17.0054C83.8823 16.8451 84.0009 16.6079 84.0009 16.2938V16.2361C84.0009 15.627 83.8086 15.1558 83.4239 14.8225C83.0457 14.4891 82.5071 14.3224 81.8083 14.3224C81.0711 14.3224 80.4845 14.4859 80.0485 14.8128C79.6126 15.1334 79.3241 15.5373 79.183 16.0245L75.3942 15.7168C75.5865 14.8193 75.9647 14.0435 76.5289 13.3896C77.0931 12.7293 77.8207 12.2228 78.7118 11.8702C79.6094 11.5112 80.648 11.3317 81.8276 11.3317C82.6482 11.3317 83.4335 11.4278 84.1836 11.6202C84.9401 11.8125 85.6101 12.1106 86.1935 12.5145C86.7833 12.9184 87.2481 13.4377 87.5878 14.0724C87.9276 14.7007 88.0975 15.4539 88.0975 16.3323V26.2949H84.2125V24.2466H84.0971C83.8599 24.7082 83.5425 25.1153 83.145 25.4679C82.7476 25.8141 82.2699 26.0866 81.7122 26.2853C81.1544 26.4776 80.5101 26.5738 79.7793 26.5738ZM80.9525 23.7466C81.5551 23.7466 82.0872 23.628 82.5488 23.3907C83.0104 23.1471 83.3726 22.8202 83.6355 22.4099C83.8983 21.9996 84.0298 21.5348 84.0298 21.0155V19.448C83.9015 19.5313 83.7252 19.6083 83.5008 19.6788C83.2829 19.7429 83.036 19.8038 82.7604 19.8615C82.4847 19.9128 82.209 19.9609 81.9334 20.0057C81.6577 20.0442 81.4077 20.0795 81.1833 20.1115C80.7024 20.182 80.2825 20.2942 79.9235 20.4481C79.5645 20.602 79.2856 20.8103 79.0869 21.0732C78.8881 21.3296 78.7888 21.6502 78.7888 22.0348C78.7888 22.5926 78.9907 23.0189 79.3946 23.3138C79.8049 23.6023 80.3242 23.7466 80.9525 23.7466ZM91.2758 26.2949V11.524H95.3724V26.2949H91.2758ZM93.3337 9.61995C92.7246 9.61995 92.2022 9.418 91.7662 9.01411C91.3367 8.60381 91.1219 8.11337 91.1219 7.54279C91.1219 6.97862 91.3367 6.49459 91.7662 6.0907C92.2022 5.6804 92.7246 5.47525 93.3337 5.47525C93.9427 5.47525 94.462 5.6804 94.8916 6.0907C95.3275 6.49459 95.5455 6.97862 95.5455 7.54279C95.5455 8.11337 95.3275 8.60381 94.8916 9.01411C94.462 9.418 93.9427 9.61995 93.3337 9.61995ZM102.751 6.60038V26.2949H98.654V6.60038H102.751ZM108.946 26.2949L104.926 11.524H109.071L111.36 21.4482H111.494L113.879 11.524H117.947L120.37 21.3905H120.495L122.746 11.524H126.881L122.871 26.2949H118.534L115.995 17.0054H115.812L113.273 26.2949H108.946ZM129.066 26.2949V11.524H133.163V26.2949H129.066ZM131.124 9.61995C130.515 9.61995 129.993 9.418 129.557 9.01411C129.127 8.60381 128.912 8.11337 128.912 7.54279C128.912 6.97862 129.127 6.49459 129.557 6.0907C129.993 5.6804 130.515 5.47525 131.124 5.47525C131.733 5.47525 132.252 5.6804 132.682 6.0907C133.118 6.49459 133.336 6.97862 133.336 7.54279C133.336 8.11337 133.118 8.60381 132.682 9.01411C132.252 9.418 131.733 9.61995 131.124 9.61995ZM140.541 17.7555V26.2949H136.444V11.524H140.349V14.1301H140.522C140.849 13.271 141.397 12.5914 142.166 12.0914C142.935 11.5849 143.868 11.3317 144.965 11.3317C145.99 11.3317 146.885 11.5561 147.648 12.0048C148.41 12.4536 149.003 13.0947 149.427 13.9281C149.85 14.7551 150.061 15.7424 150.061 16.89V26.2949H145.965V17.6209C145.971 16.7169 145.74 16.0117 145.272 15.5052C144.804 14.9924 144.16 14.7359 143.339 14.7359C142.788 14.7359 142.301 14.8545 141.878 15.0917C141.461 15.3289 141.134 15.6751 140.897 16.1303C140.666 16.5791 140.547 17.1208 140.541 17.7555ZM158.733 26.5353C157.611 26.5353 156.595 26.2468 155.685 25.6699C154.781 25.0865 154.063 24.2306 153.53 23.1023C153.005 21.9675 152.742 20.5763 152.742 18.9287C152.742 17.2362 153.014 15.829 153.559 14.7071C154.104 13.5787 154.829 12.7357 155.733 12.1779C156.643 11.6138 157.64 11.3317 158.723 11.3317C159.55 11.3317 160.24 11.4727 160.791 11.7548C161.349 12.0305 161.797 12.3767 162.137 12.7934C162.483 13.2037 162.746 13.6076 162.926 14.0051H163.051V6.60038H167.138V26.2949H163.099V23.9293H162.926C162.733 24.3396 162.461 24.7467 162.108 25.1506C161.762 25.548 161.31 25.8782 160.752 26.1411C160.201 26.4039 159.528 26.5353 158.733 26.5353ZM160.031 23.2753C160.692 23.2753 161.249 23.0958 161.704 22.7368C162.166 22.3714 162.519 21.8617 162.762 21.2078C163.012 20.5539 163.137 19.7878 163.137 18.9095C163.137 18.0312 163.015 17.2683 162.772 16.6207C162.528 15.9732 162.176 15.4732 161.714 15.1206C161.252 14.768 160.692 14.5917 160.031 14.5917C159.358 14.5917 158.791 14.7744 158.329 15.1398C157.867 15.5052 157.518 16.0117 157.281 16.6592C157.044 17.3067 156.925 18.0568 156.925 18.9095C156.925 19.7685 157.044 20.5282 157.281 21.1886C157.524 21.8425 157.874 22.3554 158.329 22.7272C158.791 23.0926 159.358 23.2753 160.031 23.2753ZM182.796 15.736L179.045 15.9668C178.981 15.6463 178.843 15.3578 178.632 15.1013C178.42 14.8385 178.141 14.6301 177.795 14.4763C177.455 14.316 177.048 14.2359 176.574 14.2359C175.939 14.2359 175.404 14.3705 174.968 14.6398C174.532 14.9026 174.314 15.2552 174.314 15.6976C174.314 16.0502 174.455 16.3483 174.737 16.5919C175.019 16.8355 175.503 17.031 176.189 17.1785L178.863 17.717C180.299 18.0119 181.369 18.4863 182.075 19.1403C182.78 19.7942 183.132 20.6533 183.132 21.7175C183.132 22.6855 182.847 23.535 182.276 24.2658C181.712 24.9967 180.937 25.5673 179.949 25.9776C178.968 26.3815 177.837 26.5834 176.555 26.5834C174.599 26.5834 173.041 26.1763 171.881 25.3621C170.727 24.5415 170.051 23.426 169.852 22.0156L173.881 21.804C174.003 22.4002 174.298 22.8554 174.766 23.1696C175.234 23.4773 175.833 23.6312 176.564 23.6312C177.282 23.6312 177.859 23.4933 178.295 23.2176C178.738 22.9356 178.962 22.5733 178.968 22.131C178.962 21.7592 178.805 21.4546 178.497 21.2174C178.189 20.9738 177.715 20.7879 177.074 20.6597L174.516 20.15C173.074 19.8615 172 19.3614 171.294 18.6498C170.596 17.9382 170.246 17.031 170.246 15.9284C170.246 14.9795 170.503 14.1621 171.016 13.4762C171.535 12.7902 172.263 12.2613 173.199 11.8894C174.141 11.5176 175.244 11.3317 176.507 11.3317C178.372 11.3317 179.84 11.726 180.911 12.5145C181.988 13.3031 182.616 14.3769 182.796 15.736Z" fill="#7F7F7F"/>
</svg>
